<svg width="397" height="191" viewBox="0 0 397 191" fill="none" xmlns="http://www.w3.org/2000/svg">
<path d="M125 161V112.5C125 86.2665 103.734 65 77.5 65C51.2665 65 30 86.2665 30 112.5V161H54V112.5C54 99.5213 64.5213 89 77.5 89C90.4787 89 101 99.5213 101 112.5V161H125Z" fill="#FF740D"/>
<g filter="url(#filter0_d_1460_27)">
<path d="M30 30V78.5C30 104.734 51.2665 126 77.5 126C103.734 126 125 104.734 125 78.5V30H101V78.5C101 91.4787 90.4787 102 77.5 102C64.5213 102 54 91.4787 54 78.5V30H30Z" fill="#FFBB27"/>
</g>
<path d="M183.505 146.975C176.658 146.975 171.74 145.48 168.75 142.49C165.803 139.457 164.178 134.495 163.875 127.605C163.832 125.265 163.788 123.055 163.745 120.975C163.745 118.895 163.767 116.815 163.81 114.735C163.897 112.655 164.005 110.423 164.135 108.04H174.925C174.752 111.723 174.643 115.385 174.6 119.025C174.6 122.622 174.708 126.11 174.925 129.49C175.055 132.22 175.792 134.235 177.135 135.535C178.478 136.835 180.602 137.485 183.505 137.485C186.278 137.485 188.272 136.835 189.485 135.535C190.742 134.235 191.478 132.22 191.695 129.49C191.825 127.28 191.912 125.287 191.955 123.51C191.998 121.69 191.998 119.848 191.955 117.985C191.912 116.078 191.825 113.933 191.695 111.55C191.565 108.69 191.067 106.263 190.2 104.27C189.377 102.233 187.773 100.912 185.39 100.305L177.655 98.29C174.015 97.38 171.198 96.0367 169.205 94.26C167.255 92.44 165.868 90.1 165.045 87.24C164.222 84.38 163.745 80.9133 163.615 76.84C163.572 74.24 163.55 71.51 163.55 68.65C163.593 65.79 163.637 62.9733 163.68 60.2C163.853 55.65 164.59 51.9667 165.89 49.15C167.19 46.29 169.27 44.2317 172.13 42.975C174.99 41.675 178.782 41.025 183.505 41.025C190.092 41.025 194.858 42.52 197.805 45.51C200.795 48.5 202.42 53.44 202.68 60.33C202.767 62.5833 202.788 65.3567 202.745 68.65C202.702 71.9433 202.615 75.3233 202.485 78.79H191.565C191.695 75.41 191.782 72.03 191.825 68.65C191.868 65.2267 191.825 61.825 191.695 58.445C191.565 55.715 190.828 53.7 189.485 52.4C188.142 51.1 186.105 50.45 183.375 50.45C180.515 50.45 178.457 51.1 177.2 52.4C175.943 53.7 175.228 55.715 175.055 58.445C174.838 61.4783 174.73 64.5333 174.73 67.61C174.773 70.6867 174.882 73.7633 175.055 76.84C175.185 80.1333 175.662 82.69 176.485 84.51C177.352 86.33 179.042 87.5433 181.555 88.15L188.705 89.905C192.475 90.7717 195.378 92.1583 197.415 94.065C199.452 95.9283 200.882 98.3117 201.705 101.215C202.528 104.075 203.005 107.52 203.135 111.55C203.222 113.803 203.265 115.753 203.265 117.4C203.265 119.047 203.243 120.672 203.2 122.275C203.157 123.835 203.113 125.612 203.07 127.605C202.81 134.495 201.185 139.457 198.195 142.49C195.205 145.48 190.308 146.975 183.505 146.975ZM232.778 146.975C228.185 146.975 224.501 146.347 221.728 145.09C218.955 143.79 216.918 141.732 215.618 138.915C214.361 136.098 213.625 132.393 213.408 127.8C213.321 124.81 213.235 121.56 213.148 118.05C213.105 114.497 213.083 110.857 213.083 107.13C213.083 103.403 213.105 99.7633 213.148 96.21C213.191 92.6133 213.278 89.2767 213.408 86.2C213.625 81.6067 214.361 77.9017 215.618 75.085C216.918 72.2683 218.933 70.2317 221.663 68.975C224.436 67.675 228.141 67.025 232.778 67.025C237.458 67.025 241.163 67.675 243.893 68.975C246.623 70.275 248.616 72.3333 249.873 75.15C251.13 77.9233 251.866 81.6067 252.083 86.2C252.17 89.19 252.235 92.4617 252.278 96.015C252.365 99.5683 252.408 103.208 252.408 106.935C252.408 110.618 252.365 114.258 252.278 117.855C252.235 121.408 252.17 124.723 252.083 127.8C251.866 132.35 251.13 136.033 249.873 138.85C248.616 141.667 246.623 143.725 243.893 145.025C241.163 146.325 237.458 146.975 232.778 146.975ZM232.778 138.2C235.595 138.2 237.61 137.615 238.823 136.445C240.036 135.232 240.665 133.217 240.708 130.4C240.838 126.153 240.946 122.123 241.033 118.31C241.12 114.497 241.163 110.727 241.163 107C241.163 103.273 241.12 99.5033 241.033 95.69C240.946 91.8333 240.838 87.8033 240.708 83.6C240.665 80.7833 240.036 78.79 238.823 77.62C237.653 76.4067 235.638 75.8 232.778 75.8C229.961 75.8 227.925 76.4067 226.668 77.62C225.455 78.79 224.805 80.7833 224.718 83.6C224.631 87.8033 224.545 91.8333 224.458 95.69C224.415 99.5033 224.393 103.273 224.393 107C224.393 110.727 224.415 114.518 224.458 118.375C224.545 122.188 224.631 126.197 224.718 130.4C224.805 133.217 225.476 135.232 226.733 136.445C227.99 137.615 230.005 138.2 232.778 138.2ZM264.591 146V42H275.901V146H264.591ZM300.614 146.845C296.02 146.845 292.619 145.588 290.409 143.075C288.242 140.518 286.942 136.553 286.509 131.18C286.465 130.14 286.422 129.057 286.379 127.93C286.379 126.803 286.4 125.742 286.444 124.745C286.66 121.582 287.245 118.787 288.199 116.36C289.152 113.89 290.669 111.658 292.749 109.665C294.872 107.628 297.732 105.722 301.329 103.945C303.279 102.905 305.272 101.952 307.309 101.085C309.345 100.175 311.425 99.33 313.549 98.55V83.6C313.549 80.9133 313.029 78.9417 311.989 77.685C310.949 76.4283 309.064 75.8 306.334 75.8C303.95 75.8 302.195 76.3417 301.069 77.425C299.985 78.465 299.379 80.415 299.249 83.275C299.205 84.185 299.162 85.3767 299.119 86.85C299.119 88.3233 299.119 89.84 299.119 91.4C299.162 92.96 299.205 94.3033 299.249 95.43H288.199C288.155 94.0433 288.112 92.2883 288.069 90.165C288.025 87.9983 288.025 86.07 288.069 84.38C288.242 80.3067 288.957 76.9917 290.214 74.435C291.47 71.8783 293.42 70.015 296.064 68.845C298.75 67.6317 302.282 67.025 306.659 67.025C311.252 67.025 314.87 67.675 317.514 68.975C320.157 70.275 322.02 72.3333 323.104 75.15C324.23 77.9233 324.794 81.5417 324.794 86.005L324.729 146H313.419V138.655H311.729C310.645 141.342 309.259 143.378 307.569 144.765C305.922 146.152 303.604 146.845 300.614 146.845ZM304.774 138.395C306.854 138.395 308.609 137.788 310.039 136.575C311.512 135.362 312.66 133.65 313.484 131.44V107C311.967 107.52 310.429 108.148 308.869 108.885C307.352 109.622 305.705 110.618 303.929 111.875C301.502 113.478 299.877 115.342 299.054 117.465C298.23 119.588 297.754 122.015 297.624 124.745C297.624 125.568 297.624 126.478 297.624 127.475C297.624 128.428 297.645 129.382 297.689 130.335C297.905 132.935 298.62 134.928 299.834 136.315C301.09 137.702 302.737 138.395 304.774 138.395ZM337.843 146V68H349.153V75.995H351.363C352.013 72.875 353.162 70.73 354.808 69.56C356.455 68.3467 358.643 67.74 361.373 67.74C362.197 67.74 363.02 67.7617 363.843 67.805C364.667 67.8483 365.338 67.8917 365.858 67.935V76.84H361.503C357.56 76.84 354.678 77.5333 352.858 78.92C351.038 80.3067 349.803 82.4517 349.153 85.355V146H337.843Z" fill="white"/>
<defs>
<filter id="filter0_d_1460_27" x="18" y="30" width="119" height="121" filterUnits="userSpaceOnUse" color-interpolation-filters="sRGB">
<feFlood flood-opacity="0" result="BackgroundImageFix"/>
<feColorMatrix in="SourceAlpha" type="matrix" values="0 0 0 0 0 0 0 0 0 0 0 0 0 0 0 0 0 0 127 0" result="hardAlpha"/>
<feOffset dy="13"/>
<feGaussianBlur stdDeviation="6"/>
<feComposite in2="hardAlpha" operator="out"/>
<feColorMatrix type="matrix" values="0 0 0 0 0 0 0 0 0 0 0 0 0 0 0 0 0 0 0.25 0"/>
<feBlend mode="normal" in2="BackgroundImageFix" result="effect1_dropShadow_1460_27"/>
<feBlend mode="normal" in="SourceGraphic" in2="effect1_dropShadow_1460_27" result="shape"/>
</filter>
</defs>
</svg>
