<svg width="100" height="100" viewBox="0 0 100 100" fill="none" xmlns="http://www.w3.org/2000/svg">
<g clip-path="url(#clip0_1462_18)">
<path d="M50 100C77.6142 100 100 77.6142 100 50C100 22.3858 77.6142 0 50 0C22.3858 0 0 22.3858 0 50C0 77.6142 22.3858 100 50 100Z" fill="#F5EEE5"/>
<mask id="mask0_1462_18" style="mask-type:luminance" maskUnits="userSpaceOnUse" x="0" y="0" width="100" height="100">
<path d="M50 100C77.6142 100 100 77.6142 100 50C100 22.3858 77.6142 0 50 0C22.3858 0 0 22.3858 0 50C0 77.6142 22.3858 100 50 100Z" fill="white"/>
</mask>
<g mask="url(#mask0_1462_18)">
<path d="M100 100V86C100 86 78.8 81.1 72 79.3C69.5 78.6 65 76 65 67.3C65 65.6 65 61 65 61H50H35C35 61 35 65.6 35 67.3C35 76 30.5 78.6 28 79.3C21.2 81.2 -0.0999756 86.6 -0.0999756 86V100H50H100Z" fill="#DF6D18"/>
</g>
<mask id="mask1_1462_18" style="mask-type:luminance" maskUnits="userSpaceOnUse" x="0" y="0" width="100" height="100">
<path d="M50 100C77.6142 100 100 77.6142 100 50C100 22.3858 77.6142 0 50 0C22.3858 0 0 22.3858 0 50C0 77.6142 22.3858 100 50 100Z" fill="white"/>
</mask>
<g mask="url(#mask1_1462_18)">
<mask id="mask2_1462_18" style="mask-type:luminance" maskUnits="userSpaceOnUse" x="-1" y="61" width="101" height="39">
<path d="M100 100V86C100 86 78.8 81.1 72 79.3C69.5 78.6 65 76 65 67.3C65 65.6 65 61 65 61H50H35C35 61 35 65.6 35 67.3C35 76 30.5 78.6 28 79.3C21.2 81.2 -0.0999756 86.6 -0.0999756 86V100H50H100Z" fill="white"/>
</mask>
<g mask="url(#mask2_1462_18)">
<path d="M50 79.1C62.7 79.1 73 60.5 73 44.7C73 28.5 62.7 20 50 20C37.3 20 27 28.5 27 44.7C27 60.5 37.3 79.1 50 79.1Z" fill="#B06010"/>
</g>
</g>
<path d="M50 75C62.7 75 73 58.7 73 44C73 28.9 62.7 21 50 21C37.3 21 27 28.9 27 44C27 58.7 37.3 75 50 75Z" fill="#FF8225"/>
</g>
<defs>
<clipPath id="clip0_1462_18">
<rect width="100" height="100" fill="white"/>
</clipPath>
</defs>
</svg>
