<svg width="1628" height="1277" viewBox="0 0 1628 1277" fill="none" xmlns="http://www.w3.org/2000/svg">
<path d="M138.523 1162.69C138.523 1162.69 -86.7414 1032.61 37.2534 713.458C161.248 394.3 398.624 412.664 517.685 269.049C636.747 125.434 959.962 -28.2431 1223.9 135.601C1487.84 299.444 1422.9 557.467 1517.86 661.286C1612.83 765.104 1809.46 1209.23 1229.65 1231.49C649.843 1253.76 138.523 1162.69 138.523 1162.69Z" fill="#C9EDF9"/>
<path opacity="0.3" d="M1293.92 374.916C1319.63 374.173 1344.97 368.449 1370.65 367.074C1398.58 365.58 1427.75 369.051 1453.55 358.259C1454.04 358.054 1454.51 357.825 1455 357.61C1446.88 325.325 1437.47 291.722 1424.67 257.857C1424.11 258.018 1423.55 258.169 1422.99 258.337C1406.5 263.286 1391.05 271.282 1374.53 276.11C1343.59 285.149 1309.36 282.421 1280.25 268.596C1247.5 253.046 1221.26 224.231 1186.27 214.767C1160.76 207.867 1133.65 212.156 1107.36 209.485C1081.07 206.816 1052.21 193.442 1045.86 167.797C1044.67 162.973 1044.4 157.679 1046.57 153.204C1051.11 143.805 1063.53 142.088 1073.96 141.61C1100.59 140.39 1127.37 139.177 1153.8 142.64C1187.44 147.045 1221.42 158.969 1254.48 151.369C1264.59 149.045 1274.21 144.949 1284.25 142.363C1310.96 135.484 1339.05 139.587 1366.22 144.965C1331.15 94.4426 1282.72 46.0616 1213.45 3.57863C1211.47 2.36411 1209.49 1.17594 1207.51 0C1180.9 14.4362 1157.69 35.4385 1129.79 47.4548C1096.31 61.8707 1058.6 62.3024 1022.21 60.2338C1000.46 58.998 976.514 57.5702 959.203 70.7909C946.525 80.4735 939.993 96.307 928.198 107.048C913.936 120.034 893.947 124.026 875.247 128.766C851.512 134.783 827.507 143.247 809.643 159.986C791.778 176.726 781.462 203.51 790.108 226.411C801.087 255.49 836.122 266.955 867.101 269.591C906.737 272.964 947.523 268.163 985.734 279.221C1011.7 286.734 1034.99 301.18 1059.23 313.139C1101.15 333.824 1146.26 347.206 1191.49 359.062C1225.03 367.854 1259.26 375.917 1293.92 374.916Z" fill="white"/>
<path opacity="0.3" d="M77 568.706C85.0373 570.2 93.0747 571.695 101.112 573.189C123.429 577.339 146.093 581.507 168.707 579.464C189.541 577.584 209.486 570.505 229.165 563.487C253.153 554.933 277.332 546.289 299.069 533.101C323.023 518.568 343.58 498.77 368.552 486.026C396.026 472.003 427.2 467.316 457.411 460.83C497.538 452.213 537.519 439.811 571.652 417.23C605.784 394.65 633.755 360.794 642.151 321.029C646.589 300.002 645.741 277.288 656.209 258.468C667.042 238.989 688.181 227.137 700.756 208.711C719.402 181.39 714.318 140.76 689.502 118.763C687.094 116.628 684.425 114.605 681.279 113.868C676.372 112.719 671.375 114.871 666.669 116.662C649.533 123.191 630.743 125.428 612.53 123.103C597.201 121.147 582.226 116.039 567.12 113C559.184 127.739 551.862 142.071 545.157 155.782C536.256 173.979 524.624 190.361 510.853 205.479C523.004 205.684 535.132 207.104 546.982 209.766C556.914 211.998 568.021 216.361 571.06 225.978C574.02 235.345 567.776 245.054 560.877 252.105C541.979 271.419 515.22 284.212 503.34 308.388C492.849 329.736 495.465 357.469 478.74 374.488C471.277 382.08 461.002 386.246 450.843 389.585C417.041 400.694 379.924 405.45 351.381 426.527C345.12 431.15 339.394 436.488 332.821 440.663C324.218 446.124 314.425 449.432 304.68 452.491C247.982 470.285 189.136 481.351 129.797 485.434C109.756 509.958 91.855 537.433 77 568.706Z" fill="white"/>
<path d="M1156.83 536.926C1173.53 688.807 1087.88 904.526 1087.88 904.526C1087.88 904.526 1204.93 794.293 1202.38 663.735L1164.94 663.088C1164.94 663.088 1184.23 650.508 1200.61 640.25C1196.1 606.287 1182.83 571.343 1156.83 536.926Z" fill="#6577FF"/>
<path d="M1022.52 712.629L1046.18 698.655L1025.75 695.671C1031.85 670.229 1042.91 647.679 1056.12 628.144C1071.55 632.824 1089.21 637.728 1089.21 637.728L1069.7 609.914C1108.72 562.075 1156.83 536.926 1156.83 536.926C1173.53 688.807 1087.88 904.527 1087.88 904.527C1029.38 829.891 1014.96 765.614 1022.52 712.629Z" fill="#65CEFE"/>
<path d="M1215.87 686.93C1190.23 697.952 1169.64 713.118 1153.09 730.397C1155.44 740.987 1157.98 753.73 1157.98 753.73L1142.21 742.753C1084.73 813.65 1085.51 909.591 1085.51 909.591C1141.97 886.327 1175.72 855.407 1195.49 824.032C1191.47 818.182 1185.36 809.586 1185.36 809.586L1201.49 813.748C1209.96 797.936 1215.13 782.209 1218.11 767.486C1209.7 765.385 1200.27 762.733 1200.27 762.733L1220.37 753.37C1224.9 715.296 1215.87 686.93 1215.87 686.93Z" fill="#FF6E53"/>
<path d="M1195.49 824.033C1191.46 818.182 1185.36 809.586 1185.36 809.586L1201.49 813.748C1209.96 797.936 1215.13 782.209 1218.11 767.486C1209.7 765.385 1200.27 762.733 1200.27 762.733L1220.37 753.37C1224.9 715.296 1215.86 686.93 1215.86 686.93C1143.31 765.249 1085.51 909.592 1085.51 909.592C1141.97 886.327 1175.72 855.408 1195.49 824.033Z" fill="#E74A60"/>
<path d="M1196.59 772.738L983.049 1064.35L1131.24 1172.86L1344.78 881.255L1196.59 772.738Z" fill="#65CEFE"/>
<path d="M1330.85 885.549L1131.16 1158.26L997.047 1060.05L1196.75 787.344L1330.85 885.549ZM1128.8 1142.99L1315.59 887.906L1199.1 802.608L1012.31 1057.69L1128.8 1142.99Z" fill="#C9EDF9"/>
<path d="M1204.53 917.828C1237.92 942.276 1246.94 986.733 1224.69 1017.12C1202.44 1047.52 1157.33 1052.33 1123.94 1027.89C1090.56 1003.44 1081.53 958.982 1103.79 928.59C1126.04 898.198 1171.15 893.38 1204.53 917.828Z" fill="#C9EDF9"/>
<path d="M1152.28 950.043C1147.94 948.895 1143.92 948.722 1140.01 951.495C1140.55 951.942 1140.92 952.338 1141.36 952.594C1147.39 956.068 1153.44 959.484 1159.43 963.011C1160.75 963.784 1161.48 963.62 1162.61 962.596C1165.22 960.208 1167.96 957.919 1170.82 955.834C1180.88 948.51 1191.35 949.823 1200.71 956.753C1211.98 965.101 1215.14 975.719 1210.92 989.181C1210.15 991.637 1210.73 992.799 1212.87 993.777C1214.43 994.489 1215.87 995.466 1217.52 996.41C1216.02 999.024 1214.6 1001.49 1213.05 1004.19C1210.69 1002.83 1208.35 1001.49 1206.06 1000.17C1193.58 1015.56 1178.45 1013.66 1168.96 1009.15C1171.1 1004.26 1173.24 999.363 1175.44 994.342C1181.26 995.935 1186.72 995.844 1192.68 992.525C1189.33 990.597 1186.44 988.937 1183.55 987.278C1179.6 985.01 1175.61 982.809 1171.73 980.445C1170.29 979.574 1169.34 979.604 1168.07 980.763C1164 984.464 1159.54 987.577 1154.14 989.075C1143.22 992.107 1134.03 988.392 1126.64 980.73C1119.74 973.575 1118.75 964.649 1121.99 955.286C1122.2 954.66 1122.43 954.038 1122.63 953.408C1122.7 953.175 1122.72 952.923 1122.8 952.463C1120.95 951.398 1119.04 950.302 1116.96 949.109C1118.48 946.463 1119.9 943.996 1121.5 941.212C1122.89 942.01 1124.36 942.731 1125.69 943.655C1127.1 944.633 1127.94 944.271 1128.97 943.014C1133.55 937.398 1139.3 933.787 1146.7 933.304C1150.61 933.05 1154.39 933.686 1158.34 935.28C1156.31 940.233 1154.34 945.019 1152.28 950.043ZM1176.81 972.795C1183.91 976.875 1190.81 980.84 1197.72 984.81C1200.02 979.729 1197.98 973.406 1192.99 969.941C1188.11 966.552 1181.9 967.547 1176.81 972.795ZM1135.1 959.687C1134.37 965.182 1136.69 970.16 1140.63 972.121C1144.99 974.287 1150.47 973.496 1153.57 970.304C1147.52 966.824 1141.45 963.335 1135.1 959.687Z" fill="#8FD0D6"/>
<path d="M1134.16 1060.98C1128.44 1057.74 1121.19 1059.74 1117.94 1065.45C1114.7 1071.16 1116.7 1078.42 1122.41 1081.66C1128.12 1084.9 1135.38 1082.91 1138.62 1077.2C1141.86 1071.49 1139.87 1064.23 1134.16 1060.98Z" fill="#CBEFEF"/>
<path d="M1278.06 807.691C1272.35 804.447 1265.09 806.446 1261.85 812.156C1258.61 817.866 1260.61 825.124 1266.32 828.368C1272.03 831.613 1279.28 829.613 1282.53 823.903C1285.77 818.194 1283.77 810.935 1278.06 807.691Z" fill="#CBEFEF"/>
<path d="M1306.35 929.413C1305.75 928.921 1320.11 905.195 1320.11 905.195L1133.9 977.137L1136.37 991.822L1306.35 929.413Z" fill="#8FD0D6"/>
<path d="M1410.14 890.464L1044.14 1025.97L1113 1211.96L1479 1076.46L1410.14 890.464Z" fill="#65CEFE"/>
<path d="M1463.81 1072.04L1121.54 1198.75L1059.22 1030.43L1401.5 903.719L1463.81 1072.04ZM1128.5 1183.6L1448.66 1065.07L1394.54 918.873L1074.38 1037.4L1128.5 1183.6Z" fill="#C9EDF9"/>
<path d="M1330.81 1025.87C1346.32 1067.78 1327.98 1113.19 1289.83 1127.31C1251.69 1141.43 1208.19 1118.91 1192.68 1077.01C1177.16 1035.11 1195.51 989.69 1233.66 975.57C1271.8 961.448 1315.3 983.969 1330.81 1025.87Z" fill="#CBEFEF"/>
<path d="M1264.73 1023.81C1262.14 1020.13 1259.18 1017.41 1254.4 1017.01C1254.53 1017.71 1254.56 1018.24 1254.73 1018.73C1257.1 1025.26 1259.54 1031.78 1261.85 1038.33C1262.36 1039.77 1263.03 1040.12 1264.55 1040.06C1268.09 1039.92 1271.65 1039.92 1275.18 1040.17C1287.59 1041.04 1294.76 1048.79 1297.46 1060.12C1300.71 1073.77 1296.29 1083.93 1284.4 1091.51C1282.23 1092.89 1281.92 1094.15 1282.93 1096.28C1283.67 1097.83 1284.14 1099.5 1284.79 1101.29C1281.96 1102.32 1279.29 1103.29 1276.36 1104.36C1275.43 1101.8 1274.5 1099.27 1273.6 1096.79C1254.14 1100.53 1243.79 1089.33 1239.44 1079.77C1244.22 1077.4 1249.01 1075.04 1253.92 1072.61C1257.36 1077.58 1261.59 1081.03 1268.28 1082.32C1266.96 1078.69 1265.82 1075.56 1264.68 1072.43C1263.12 1068.15 1261.48 1063.9 1260.03 1059.59C1259.5 1058 1258.75 1057.41 1257.03 1057.47C1251.53 1057.69 1246.11 1057.19 1241.02 1054.87C1230.72 1050.16 1226.08 1041.4 1225.35 1030.78C1224.68 1020.86 1229.67 1013.39 1238.17 1008.31C1238.74 1007.97 1239.32 1007.64 1239.88 1007.29C1240.08 1007.16 1240.26 1006.98 1240.61 1006.68C1239.88 1004.67 1239.13 1002.6 1238.31 1000.35C1241.17 999.305 1243.85 998.331 1246.87 997.23C1247.41 998.735 1248.08 1000.23 1248.5 1001.8C1248.95 1003.46 1249.82 1003.72 1251.42 1003.42C1258.54 1002.07 1265.26 1003.01 1271.24 1007.41C1274.4 1009.73 1276.88 1012.65 1278.87 1016.41C1274.12 1018.89 1269.54 1021.29 1264.73 1023.81ZM1268.85 1057.01C1271.65 1064.7 1274.38 1072.18 1277.11 1079.67C1282.14 1077.26 1284.65 1071.11 1283.07 1065.24C1281.51 1059.51 1276.12 1056.27 1268.85 1057.01ZM1245.37 1020.12C1241.27 1023.86 1239.84 1029.16 1241.6 1033.2C1243.54 1037.66 1248.24 1040.59 1252.67 1040.14C1250.28 1033.58 1247.88 1027 1245.37 1020.12Z" fill="#8FD0D6"/>
<path d="M1179.08 1077.89C1176.8 1071.74 1169.96 1068.59 1163.8 1070.87C1157.64 1073.15 1154.5 1079.99 1156.78 1086.15C1159.06 1092.31 1165.9 1095.45 1172.06 1093.17C1178.22 1090.89 1181.36 1084.05 1179.08 1077.89Z" fill="#CBEFEF"/>
<path d="M1395.68 1001.56C1393.62 995.992 1387.44 993.149 1381.87 995.211C1376.3 997.272 1373.46 1003.46 1375.52 1009.03C1377.58 1014.59 1383.76 1017.44 1389.33 1015.38C1394.9 1013.32 1397.74 1007.13 1395.68 1001.56Z" fill="#C9EDF9"/>
<path d="M1415.95 1032.98L1025.67 1034.19L1026.28 1232.52L1416.56 1231.31L1415.95 1032.98Z" fill="#65CEFE"/>
<path d="M1403.82 1221.95L1038.84 1223.08L1038.29 1043.6L1403.26 1042.47L1403.82 1221.95ZM1050.6 1211.25L1391.99 1210.2L1391.51 1054.3L1050.12 1055.35L1050.6 1211.25Z" fill="#C9EDF9"/>
<path d="M1294.83 1132.83C1294.97 1177.51 1262.11 1213.83 1221.44 1213.96C1180.76 1214.08 1147.68 1177.96 1147.54 1133.28C1147.4 1088.6 1180.26 1052.27 1220.94 1052.15C1261.61 1052.02 1294.7 1088.14 1294.83 1132.83Z" fill="#C9EDF9"/>
<path d="M1233.51 1108.13C1232.35 1103.79 1230.5 1100.22 1226.15 1098.2C1226.03 1098.89 1225.87 1099.41 1225.87 1099.92C1225.85 1106.87 1225.89 1113.83 1225.8 1120.78C1225.78 1122.3 1226.29 1122.86 1227.74 1123.33C1231.11 1124.41 1234.46 1125.64 1237.69 1127.09C1249.04 1132.19 1253.1 1141.93 1251.74 1153.49C1250.09 1167.43 1242.44 1175.44 1228.66 1178.47C1226.15 1179.02 1225.43 1180.09 1225.64 1182.44C1225.8 1184.15 1225.67 1185.88 1225.66 1187.78C1222.65 1187.77 1219.81 1187.77 1216.69 1187.76C1216.7 1185.04 1216.7 1182.34 1216.71 1179.7C1197.15 1176.51 1191.29 1162.44 1190.49 1151.96C1195.8 1151.39 1201.11 1150.82 1206.56 1150.23C1208.07 1156.08 1210.86 1160.77 1216.7 1164.29C1216.71 1160.42 1216.71 1157.09 1216.72 1153.76C1216.73 1149.21 1216.66 1144.66 1216.78 1140.11C1216.82 1138.43 1216.32 1137.62 1214.68 1137.09C1209.45 1135.4 1204.53 1133.07 1200.55 1129.13C1192.5 1121.16 1191.16 1111.34 1194.14 1101.12C1196.92 1091.57 1204.17 1086.28 1213.91 1084.44C1214.56 1084.31 1215.21 1084.2 1215.86 1084.06C1216.1 1084.01 1216.32 1083.9 1216.76 1083.74C1216.77 1081.61 1216.77 1079.41 1216.78 1077.01C1219.83 1077.02 1222.67 1077.02 1225.88 1077.03C1225.88 1078.63 1225.99 1080.27 1225.85 1081.88C1225.7 1083.59 1226.43 1084.14 1228.03 1084.4C1235.18 1085.59 1241.17 1088.79 1245.26 1094.97C1247.43 1098.24 1248.75 1101.84 1249.33 1106.05C1244.02 1106.75 1238.89 1107.42 1233.51 1108.13ZM1225.94 1140.72C1225.93 1148.91 1225.91 1156.87 1225.9 1164.84C1231.45 1164.31 1235.93 1159.4 1236.46 1153.35C1236.97 1147.43 1233.02 1142.53 1225.94 1140.72ZM1216.6 1098.01C1211.47 1100.1 1208.3 1104.58 1208.56 1108.98C1208.84 1113.84 1212.25 1118.21 1216.56 1119.32C1216.57 1112.33 1216.59 1105.33 1216.6 1098.01Z" fill="#8FD0D6"/>
<path d="M1126.05 1122.27C1126.03 1115.71 1120.69 1110.4 1114.12 1110.42C1107.56 1110.44 1102.25 1115.78 1102.27 1122.35C1102.29 1128.91 1107.63 1134.22 1114.2 1134.2C1120.76 1134.18 1126.07 1128.84 1126.05 1122.27Z" fill="#CBEFEF"/>
<path d="M1364.11 1132.34C1364.09 1126.4 1359.27 1121.6 1353.33 1121.62C1347.39 1121.64 1342.59 1126.46 1342.61 1132.4C1342.63 1138.34 1347.46 1143.14 1353.39 1143.12C1359.33 1143.1 1364.13 1138.27 1364.11 1132.34Z" fill="#C9EDF9"/>
<path d="M1416.09 1099.67L1415.89 1033.01L1143.38 1033.58L1140.73 1017.79L1430.82 1016.87L1430.98 1094.24L1416.09 1099.67Z" fill="#C9EDF9"/>
<path d="M475.05 678.709L394.508 698.805L415.344 782.31L495.885 762.214L475.05 678.709Z" fill="#EEFBFF"/>
<path d="M221.621 741.947L141.079 762.043L161.915 845.548L242.456 825.452L221.621 741.947Z" fill="#EEFBFF"/>
<path d="M553.275 992.54L495.798 762.156L415.26 782.25L473.472 1015.58L473.881 1016.77C474.299 1018.11 478.491 1032.04 479.727 1050.49C480.788 1066.33 479.846 1089.18 469.336 1108.04C459.104 1126.4 441.056 1138.9 414.229 1146.18C411.861 1146.72 409.537 1147.18 407.249 1147.59L407.251 1147.59L427.373 1228.24C428.608 1227.99 429.845 1227.73 431.087 1227.46L431.109 1227.55C432.188 1227.28 433.257 1227.01 434.325 1226.72C435.399 1226.47 436.474 1226.22 437.553 1225.95L437.53 1225.85C461.397 1219.19 482.325 1209.24 499.812 1196.23C517.498 1183.07 531.772 1166.76 542.237 1147.74C551.526 1130.86 557.792 1111.86 560.861 1091.27C563.198 1075.59 563.688 1058.96 562.319 1041.82C560.354 1017.24 555.107 998.505 553.275 992.54Z" fill="#6577FF"/>
<path d="M347.664 1138.39C329.525 1126.68 317.964 1106.95 311.461 1092.47C303.883 1075.6 301.042 1061.33 300.777 1059.95L300.581 1058.71L242.369 825.379L161.833 845.471L219.308 1075.86C220.494 1081.98 224.663 1100.99 234.473 1123.61C241.313 1139.38 249.561 1153.84 258.987 1166.58C271.369 1183.31 285.825 1197.14 301.955 1207.68C320.127 1219.55 340.391 1227.25 362.184 1230.56C382.628 1233.66 404.514 1232.87 427.371 1228.24L407.25 1147.59C383.351 1151.83 363.78 1148.8 347.664 1138.39Z" fill="#FF6E53"/>
<path d="M1306.91 1075.84C1307.84 1162.04 1238.7 1232.67 1152.49 1233.59C1066.29 1234.51 995.659 1165.38 994.738 1079.17C993.817 992.966 1062.95 922.337 1149.16 921.415C1235.36 920.495 1305.99 989.632 1306.91 1075.84Z" fill="#FFCB83"/>
<path d="M1250.07 1176.75C1304.89 1121.93 1304.89 1033.04 1250.07 978.216C1195.25 923.392 1106.36 923.391 1051.53 978.216C996.709 1033.04 996.709 1121.93 1051.53 1176.75C1106.36 1231.58 1195.25 1231.58 1250.07 1176.75Z" fill="#E6A748"/>
<path d="M1152.23 1208.92C1079.76 1209.69 1020.17 1151.36 1019.4 1078.89C1018.62 1006.42 1076.95 946.837 1149.42 946.062C1221.89 945.288 1281.48 1003.62 1282.25 1076.09C1283.03 1148.55 1224.7 1208.14 1152.23 1208.92ZM1149.47 950.892C1079.67 951.638 1023.48 1009.04 1024.23 1078.84C1024.97 1148.65 1082.37 1204.83 1152.18 1204.09C1221.98 1203.34 1278.17 1145.94 1277.42 1076.14C1276.68 1006.33 1219.28 950.146 1149.47 950.892Z" fill="#FFCB83"/>
<path opacity="0.5" d="M1172.21 1035.93C1170.15 1028.59 1166.94 1022.57 1159.52 1019.24C1159.34 1020.42 1159.07 1021.29 1159.08 1022.16C1159.19 1033.96 1159.41 1045.75 1159.41 1057.55C1159.41 1060.13 1160.29 1061.07 1162.75 1061.83C1168.5 1063.6 1174.2 1065.62 1179.71 1068.01C1199.07 1076.4 1206.17 1092.84 1204.09 1112.49C1201.6 1136.16 1188.8 1149.91 1165.49 1155.34C1161.24 1156.33 1160.03 1158.17 1160.45 1162.14C1160.75 1165.04 1160.56 1167.98 1160.6 1171.2C1155.49 1171.25 1150.66 1171.3 1145.38 1171.36C1145.33 1166.74 1145.29 1162.17 1145.24 1157.69C1112 1152.69 1101.76 1128.95 1100.18 1111.19C1109.17 1110.11 1118.17 1109.02 1127.4 1107.91C1130.09 1117.8 1134.92 1125.7 1144.9 1131.55C1144.83 1124.99 1144.77 1119.34 1144.71 1113.69C1144.62 1105.96 1144.41 1098.24 1144.52 1090.52C1144.56 1087.68 1143.69 1086.31 1140.9 1085.45C1131.99 1082.69 1123.59 1078.84 1116.76 1072.25C1102.93 1058.9 1100.45 1042.27 1105.29 1024.87C1109.81 1008.62 1121.99 999.481 1138.47 996.156C1139.57 995.934 1140.67 995.73 1141.77 995.483C1142.17 995.391 1142.55 995.197 1143.3 994.918C1143.26 991.295 1143.22 987.564 1143.17 983.501C1148.35 983.445 1153.18 983.394 1158.62 983.336C1158.65 986.051 1158.87 988.824 1158.66 991.566C1158.44 994.469 1159.69 995.381 1162.42 995.799C1174.57 997.668 1184.79 1002.95 1191.88 1013.36C1195.62 1018.86 1197.94 1024.93 1199 1032.07C1190.01 1033.36 1181.33 1034.62 1172.21 1035.93ZM1160.07 1091.37C1160.22 1105.26 1160.37 1118.76 1160.51 1132.28C1169.92 1131.27 1177.41 1122.84 1178.18 1112.57C1178.93 1102.51 1172.12 1094.29 1160.07 1091.37ZM1143.32 1019.11C1134.66 1022.77 1129.38 1030.45 1129.91 1037.9C1130.5 1046.14 1136.38 1053.48 1143.71 1055.26C1143.58 1043.41 1143.45 1031.53 1143.32 1019.11Z" fill="#FFF9FF"/>
<path d="M392.592 1162.94C392.592 1162.94 454.598 1077.22 422.409 1061.36C422.409 1061.36 416.658 1052.26 393.51 1084.79C393.51 1084.79 379.206 1089.49 378.391 1072.91C377.576 1056.32 401.064 1031.08 386.087 1016.69C371.11 1002.31 363.377 1028.19 352.822 1033.11C342.267 1038.02 347.266 971.882 332.629 964.786C317.991 957.691 314.007 983.784 305.813 986.829C297.62 989.874 273.409 912.804 234.247 927.129C195.085 941.455 239.823 970.307 258.613 988.166C277.403 1006.02 238.615 996.057 234.564 1018.89C230.514 1041.72 299.735 1023.33 293.464 1045.54C287.192 1067.74 267.355 1055.09 263.659 1071.67C257.683 1098.48 326.264 1072.71 324.717 1091.17C323.484 1105.89 298.615 1096.21 295.964 1107.59C293.315 1118.97 336.373 1159.76 392.592 1162.94Z" fill="#063E70"/>
<path opacity="0.1" d="M424.588 1062.64C424.305 1062.44 424.011 1062.26 423.707 1062.07C422.53 1065.6 421.078 1069.44 419.296 1073.45C412.751 1088.15 400.297 1108.01 378.119 1119.39C372.458 1107.12 365.459 1094.29 357.15 1080.94C363.035 1047.42 374.788 1028.7 383.613 1018.89C384.378 1018.04 385.133 1017.25 385.877 1016.5C385.623 1016.26 385.37 1016.03 385.12 1015.82C384.396 1016.55 383.662 1017.32 382.918 1018.15C374.081 1027.94 362.349 1046.54 356.349 1079.65C356.314 1079.59 356.279 1079.54 356.245 1079.48C347.656 1065.8 337.696 1051.57 326.461 1036.92C326.252 1035.44 324.329 1021.32 324.443 1004.38C324.526 992.218 325.703 976.72 330.124 963.863C329.783 963.778 329.45 963.714 329.121 963.666C324.693 976.635 323.509 992.172 323.427 1004.38C323.332 1018.56 324.659 1030.78 325.226 1035.32C316.628 1024.17 307.3 1012.79 297.279 1001.23C269.332 968.968 242.474 942.805 228.47 929.652C228.148 929.822 227.837 929.993 227.532 930.165C241.446 943.222 268.425 969.474 296.511 1001.89C301.234 1007.34 306.112 1013.12 311.052 1019.15C307.232 1018.49 295.833 1016.68 281.026 1016.02C268.551 1015.46 251.69 1015.65 234.595 1018.72C234.585 1018.78 234.574 1018.83 234.564 1018.89C234.51 1019.19 234.471 1019.49 234.443 1019.78C251.553 1016.67 268.466 1016.47 280.962 1017.03C297.907 1017.79 310.361 1020.05 312.041 1020.37C322.967 1033.77 334.169 1048.45 344.664 1063.81C320.572 1060.8 282.206 1069.1 263.334 1073.78C263.304 1074.14 263.291 1074.5 263.293 1074.84C282.23 1070.13 321.449 1061.6 345.434 1064.93C360.311 1086.82 373.699 1110.03 382.769 1132.84C362.606 1136.12 338.677 1127.17 322.07 1119.03C311.798 1113.99 303.001 1108.64 297.255 1104.91C297.042 1105.17 296.851 1105.45 296.68 1105.75C302.451 1109.49 311.288 1114.87 321.607 1119.93C338.413 1128.17 362.676 1137.23 383.155 1133.81C387.01 1143.63 390.054 1153.38 392.062 1162.91C392.239 1162.92 392.414 1162.93 392.591 1162.94C392.591 1162.94 392.729 1162.75 392.989 1162.39C390.202 1149.3 385.37 1135.24 378.547 1120.31C379.993 1119.57 381.418 1118.79 382.817 1117.96C390.971 1113.13 398.318 1106.83 404.708 1099.16C410.778 1091.87 416.003 1083.35 420.237 1073.83C421.987 1069.9 423.419 1066.12 424.588 1062.64Z" fill="white"/>
<path d="M466.804 1184.88C466.804 1184.88 412.075 1123.43 309.776 1127.61L327.515 1152.1L298.927 1129.65C298.927 1129.65 239.614 1134.57 199.2 1149.05C199.2 1149.05 286.061 1194.8 307.992 1198.82L337.267 1190.12L321.411 1212C321.411 1212 369.204 1238.57 418.361 1233.13C467.519 1227.69 466.804 1184.88 466.804 1184.88Z" fill="#FFCB83"/>
<path d="M746.395 664.793H1078.67C1099.62 664.793 1116.61 681.776 1116.61 702.726V1197.83C1116.61 1218.78 1099.62 1235.76 1078.67 1235.76H746.394C725.445 1235.76 708.462 1218.78 708.462 1197.83V702.725C708.463 681.776 725.446 664.793 746.395 664.793Z" fill="#063E70"/>
<path d="M1083.7 711.758H745.213V798.86H1083.7V711.758Z" fill="#6577FF"/>
<path opacity="0.5" d="M754.194 724.296H1083.7V711.758H745.213V798.86H754.194V724.296Z" fill="#6577FF"/>
<path d="M828.152 855.082H759.399C751.564 855.082 745.213 848.731 745.213 840.896V837.89C745.213 830.054 751.564 823.703 759.399 823.703H828.152C835.987 823.703 842.338 830.055 842.338 837.89V840.896C842.338 848.731 835.987 855.082 828.152 855.082Z" fill="#FF6E53"/>
<path d="M948.835 855.082H880.082C872.247 855.082 865.896 848.731 865.896 840.896V837.89C865.896 830.054 872.247 823.703 880.082 823.703H948.835C956.67 823.703 963.021 830.054 963.021 837.89V840.896C963.021 848.731 956.67 855.082 948.835 855.082Z" fill="#FF6E53"/>
<path d="M1069.52 855.082H1000.77C992.93 855.082 986.579 848.731 986.579 840.895V837.89C986.579 830.054 992.93 823.703 1000.76 823.703H1069.52C1077.35 823.703 1083.7 830.054 1083.7 837.89V840.896C1083.7 848.731 1077.35 855.082 1069.52 855.082Z" fill="#FF6E53"/>
<path d="M797.148 950.266H768.442C755.613 950.266 745.214 939.866 745.214 927.036V903.147C745.214 890.318 755.613 879.918 768.442 879.918H797.149C809.978 879.918 820.378 890.317 820.378 903.147V927.035C820.377 939.865 809.977 950.266 797.148 950.266Z" fill="#C9EDF9"/>
<path d="M884.924 950.266H856.218C843.389 950.266 832.989 939.866 832.989 927.036V903.147C832.989 890.318 843.389 879.918 856.218 879.918H884.924C897.753 879.918 908.153 890.318 908.153 903.147V927.035C908.152 939.865 897.753 950.266 884.924 950.266Z" fill="#C9EDF9"/>
<path d="M972.699 950.266H943.994C931.165 950.266 920.764 939.866 920.764 927.035V903.147C920.764 890.318 931.163 879.918 943.993 879.918H972.699C985.528 879.918 995.928 890.318 995.928 903.147V927.035C995.928 939.865 985.529 950.266 972.699 950.266Z" fill="#C9EDF9"/>
<path d="M797.148 1036.99H768.443C755.614 1036.99 745.214 1026.59 745.214 1013.76V989.873C745.214 977.045 755.613 966.645 768.442 966.645H797.148C809.977 966.645 820.377 977.044 820.377 989.873V1013.76C820.377 1026.59 809.977 1036.99 797.148 1036.99Z" fill="#C9EDF9"/>
<path d="M884.924 1036.99H856.218C843.389 1036.99 832.989 1026.59 832.989 1013.76V989.873C832.989 977.045 843.389 966.645 856.218 966.645H884.924C897.753 966.645 908.153 977.044 908.153 989.873V1013.76C908.152 1026.59 897.753 1036.99 884.924 1036.99Z" fill="#C9EDF9"/>
<path d="M972.699 1036.99H943.994C931.165 1036.99 920.764 1026.59 920.764 1013.76V989.873C920.764 977.045 931.164 966.645 943.994 966.645H972.699C985.528 966.645 995.928 977.044 995.928 989.873V1013.76C995.928 1026.59 985.529 1036.99 972.699 1036.99Z" fill="#C9EDF9"/>
<path d="M1068.39 879.918H1023.85C1015.4 879.918 1008.54 886.774 1008.54 895.23V917.004V934.952V1021.68C1008.54 1030.13 1015.4 1036.99 1023.85 1036.99H1068.39C1076.85 1036.99 1083.7 1030.13 1083.7 1021.68V934.952V917.004V895.23C1083.7 886.773 1076.85 879.918 1068.39 879.918Z" fill="#FFCB83"/>
<path d="M797.148 1123.72H768.442C755.613 1123.72 745.214 1113.32 745.214 1100.49V1076.6C745.214 1063.78 755.613 1053.38 768.443 1053.38H797.149C809.978 1053.38 820.378 1063.77 820.378 1076.6V1100.49C820.377 1113.32 809.977 1123.72 797.148 1123.72Z" fill="#C9EDF9"/>
<path d="M884.924 1123.72H856.218C843.389 1123.72 832.989 1113.32 832.989 1100.49V1076.6C832.989 1063.78 843.389 1053.38 856.218 1053.38H884.924C897.753 1053.38 908.153 1063.77 908.153 1076.6V1100.49C908.152 1113.32 897.753 1123.72 884.924 1123.72Z" fill="#C9EDF9"/>
<path d="M972.699 1123.72H943.994C931.165 1123.72 920.764 1113.32 920.764 1100.49V1076.6C920.764 1063.78 931.164 1053.38 943.994 1053.38H972.699C985.528 1053.38 995.928 1063.77 995.928 1076.6V1100.49C995.928 1113.32 985.529 1123.72 972.699 1123.72Z" fill="#C9EDF9"/>
<path d="M1060.47 1123.72H1031.77C1018.94 1123.72 1008.54 1113.32 1008.54 1100.49V1076.6C1008.54 1063.78 1018.94 1053.38 1031.77 1053.38H1060.47C1073.3 1053.38 1083.7 1063.77 1083.7 1076.6V1100.49C1083.7 1113.32 1073.3 1123.72 1060.47 1123.72Z" fill="#FFCB83"/>
<path d="M797.149 1210.45H768.442C755.613 1210.45 745.214 1200.05 745.214 1187.22V1163.33C745.214 1150.5 755.613 1140.1 768.443 1140.1H797.149C809.978 1140.1 820.378 1150.5 820.378 1163.33V1187.22C820.377 1200.05 809.977 1210.45 797.149 1210.45Z" fill="#C9EDF9"/>
<path d="M884.924 1210.45H856.218C843.389 1210.45 832.989 1200.05 832.989 1187.22V1163.33C832.989 1150.5 843.389 1140.1 856.218 1140.1H884.924C897.753 1140.1 908.153 1150.5 908.153 1163.33V1187.22C908.152 1200.05 897.753 1210.45 884.924 1210.45Z" fill="#C9EDF9"/>
<path d="M972.699 1210.45H943.994C931.165 1210.45 920.764 1200.05 920.764 1187.22V1163.33C920.764 1150.5 931.164 1140.1 943.994 1140.1H972.699C985.528 1140.1 995.928 1150.5 995.928 1163.33V1187.22C995.928 1200.04 985.529 1210.45 972.699 1210.45Z" fill="#FFCB83"/>
<path d="M1060.47 1210.45H1031.77C1018.94 1210.45 1008.54 1200.05 1008.54 1187.22V1163.33C1008.54 1150.5 1018.94 1140.1 1031.77 1140.1H1060.47C1073.3 1140.1 1083.7 1150.5 1083.7 1163.33V1187.22C1083.7 1200.05 1073.3 1210.45 1060.47 1210.45Z" fill="#FF6E53"/>
<path d="M795.662 1070.07V1073.63L778.309 1109.93H772.729L790.02 1074.67V1074.55H770.521V1070.07L795.662 1070.07Z" fill="white"/>
<path d="M857.412 1099.8C857.412 1094.77 860.416 1091.21 865.321 1089.13L865.26 1088.95C860.845 1086.86 858.945 1083.43 858.945 1079.99C858.945 1073.68 864.279 1069.39 871.269 1069.39C878.995 1069.39 882.858 1074.23 882.858 1079.2C882.858 1082.57 881.203 1086.19 876.297 1088.52V1088.7C881.264 1090.66 884.33 1094.16 884.33 1099C884.33 1105.93 878.382 1110.59 870.779 1110.59C862.439 1110.59 857.412 1105.62 857.412 1099.8ZM878.872 1099.55C878.872 1094.71 875.499 1092.38 870.104 1090.85C865.444 1092.2 862.93 1095.26 862.93 1099.06C862.746 1103.11 865.812 1106.67 870.901 1106.67C875.745 1106.67 878.872 1103.66 878.872 1099.55ZM864.034 1079.63C864.034 1083.61 867.038 1085.76 871.637 1086.98C875.071 1085.82 877.708 1083.37 877.708 1079.75C877.708 1076.56 875.807 1073.25 870.963 1073.25C866.487 1073.25 864.034 1076.19 864.034 1079.63Z" fill="white"/>
<path d="M884.391 1175.23C884.391 1188.78 879.363 1196.26 870.533 1196.26C862.746 1196.26 857.473 1188.96 857.351 1175.78C857.351 1162.41 863.114 1155.05 871.208 1155.05C879.608 1155.05 884.391 1162.54 884.391 1175.23ZM862.746 1175.84C862.746 1186.2 865.935 1192.09 870.84 1192.09C876.358 1192.09 878.995 1185.65 878.995 1175.47C878.995 1165.66 876.481 1159.22 870.901 1159.22C866.18 1159.22 862.746 1164.99 862.746 1175.84Z" fill="white"/>
<path d="M950.065 1106.11C951.229 1106.24 952.579 1106.11 954.418 1105.93C957.545 1105.5 960.489 1104.21 962.757 1102.07C965.393 1099.68 967.294 1096.18 968.03 1091.46H967.846C965.639 1094.16 962.451 1095.75 958.465 1095.75C951.291 1095.75 946.693 1090.36 946.693 1083.55C946.693 1076.01 952.149 1069.39 960.305 1069.39C968.459 1069.39 973.487 1076.01 973.487 1086.19C973.487 1094.96 970.544 1101.09 966.62 1104.89C963.554 1107.89 959.323 1109.73 955.031 1110.22C953.069 1110.53 951.352 1110.59 950.065 1110.53V1106.11ZM952.028 1083.18C952.028 1088.15 955.032 1091.64 959.692 1091.64C963.31 1091.64 966.13 1089.87 967.54 1087.47C967.847 1086.98 968.03 1086.37 968.03 1085.51C968.03 1078.71 965.517 1073.49 959.876 1073.49C955.277 1073.49 952.028 1077.54 952.028 1083.18Z" fill="white"/>
<path d="M786.465 1021.49V1010.64H767.948V1007.08L785.729 981.637H791.554V1006.41H797.134V1010.64H791.554V1021.49L786.465 1021.49ZM786.465 1006.41V993.101C786.465 991.017 786.527 988.932 786.649 986.848H786.465C785.239 989.177 784.258 990.894 783.155 992.734L773.406 1006.28V1006.41L786.465 1006.41Z" fill="white"/>
<path d="M881.693 986.175H866.486L864.954 996.414C865.873 996.291 866.731 996.169 868.203 996.169C871.269 996.169 874.335 996.843 876.788 998.314C879.915 1000.09 882.49 1003.53 882.49 1008.55C882.49 1016.34 876.297 1022.16 867.652 1022.16C863.298 1022.16 859.619 1020.94 857.718 1019.71L859.067 1015.6C860.722 1016.59 863.972 1017.81 867.59 1017.81C872.679 1017.81 877.033 1014.5 877.033 1009.17C876.972 1004.02 873.538 1000.34 865.567 1000.34C863.298 1000.34 861.521 1000.58 860.049 1000.77L862.623 981.637H881.693V986.175Z" fill="white"/>
<path d="M969.686 985.45C968.583 985.388 967.172 985.45 965.64 985.695C957.178 987.106 952.702 993.298 951.782 999.859H951.966C953.867 997.345 957.178 995.259 961.592 995.259C968.644 995.259 973.61 1000.35 973.61 1008.14C973.61 1015.43 968.644 1022.18 960.366 1022.18C951.842 1022.18 946.263 1015.55 946.263 1005.19C946.263 997.345 949.084 991.152 953.008 987.228C956.319 983.978 960.734 981.955 965.761 981.342C967.356 981.096 968.706 981.035 969.686 981.035V985.45ZM968.153 1008.44C968.153 1002.74 964.903 999.306 959.938 999.306C956.687 999.306 953.683 1001.33 952.212 1004.21C951.843 1004.82 951.599 1005.62 951.599 1006.6C951.72 1013.16 954.725 1018.01 960.367 1018.01C965.027 1018.01 968.153 1014.14 968.153 1008.44Z" fill="white"/>
<path d="M781.498 901.938H781.376L774.447 905.679L773.405 901.57L782.112 896.91H786.71V936.765H781.499V901.938H781.498Z" fill="white"/>
<path d="M857.902 936.76V933.449L862.134 929.34C872.311 919.653 876.911 914.502 876.972 908.493C876.972 904.447 875.01 900.707 869.063 900.707C865.445 900.707 862.44 902.546 860.601 904.079L858.884 900.277C861.642 897.948 865.567 896.23 870.165 896.23C878.749 896.23 882.366 902.117 882.366 907.819C882.366 915.177 877.032 921.125 868.632 929.219L865.443 932.162V932.284H883.346V936.76H857.902Z" fill="white"/>
<path d="M948.226 930.567C949.759 931.549 953.316 933.082 957.055 933.082C963.984 933.082 966.13 928.666 966.069 925.355C966.008 919.775 960.979 917.384 955.768 917.384H952.764V913.337H955.768C959.692 913.337 964.66 911.314 964.66 906.593C964.66 903.404 962.636 900.584 957.669 900.584C954.481 900.584 951.415 901.994 949.698 903.221L948.288 899.296C950.372 897.764 954.419 896.23 958.711 896.23C966.559 896.23 970.116 900.891 970.116 905.736C970.116 909.844 967.664 913.338 962.758 915.117V915.238C967.664 916.22 971.65 919.899 971.65 925.479C971.65 931.855 966.683 937.435 957.118 937.435C952.642 937.435 948.718 936.025 946.756 934.737L948.226 930.567Z" fill="white"/>
<path d="M787.602 1190.32C787.602 1192.98 785.45 1195.13 782.795 1195.13C780.141 1195.13 777.989 1192.98 777.989 1190.32C777.989 1187.67 780.141 1185.52 782.795 1185.52C785.45 1185.52 787.602 1187.67 787.602 1190.32Z" fill="white"/>
<path d="M1074.67 961.003H1049.38V935.703H1042.87V961.003H1017.57V967.508H1042.87V992.808H1049.38V967.508H1074.67V961.003Z" fill="white"/>
<path d="M975.185 1190.25L961.791 1176.85L975.185 1163.46L971.742 1160.01L958.346 1173.41L944.952 1160.01L941.507 1163.46L954.902 1176.85L941.507 1190.25L944.952 1193.69L958.346 1180.29L971.742 1193.69L975.185 1190.25Z" fill="white"/>
<path d="M1065.74 1087.16H1023.37V1093.65H1065.74V1087.16Z" fill="white"/>
<path d="M1067.31 1162.16H1024.94V1168.65H1067.31V1162.16Z" fill="white"/>
<path d="M1067.31 1178.49H1024.94V1184.98H1067.31V1178.49Z" fill="white"/>
<path d="M803.227 931.77H660.459V992.181H803.227V931.77Z" fill="#65CEFE"/>
<path d="M660.459 931.77H517.691V992.181H660.459V931.77Z" fill="#6577FF"/>
<path d="M517.691 931.77H374.923V992.181H517.691V931.77Z" fill="#064C91"/>
<path d="M804.345 993.954H373.805V929.988H804.345V993.954ZM376.041 990.402H802.109V933.539H376.041V990.402Z" fill="#064C91"/>
<path d="M781.356 1052.59H638.588V1113.01H781.356V1052.59Z" fill="#65CEFE"/>
<path d="M638.589 1052.59H495.821V1113.01H638.589V1052.59Z" fill="#6577FF"/>
<path d="M495.82 1052.59H353.052V1113.01H495.82V1052.59Z" fill="#064C91"/>
<path d="M782.475 1114.77H351.934V1050.81H782.475V1114.77ZM354.17 1111.22H780.238V1054.36H354.17V1111.22Z" fill="#064C91"/>
<path d="M803.227 1113.02H660.459V1173.43H803.227V1113.02Z" fill="#65CEFE"/>
<path d="M660.459 1113.02H517.691V1173.43H660.459V1113.02Z" fill="#6577FF"/>
<path d="M517.691 1113.02H374.923V1173.43H517.691V1113.02Z" fill="#064C91"/>
<path d="M804.346 1175.21H373.805V1111.25H804.346V1175.21ZM376.042 1171.66H802.109V1114.8H376.042V1171.66Z" fill="#064C91"/>
<path d="M837.69 1173.43H694.922V1233.84H837.69V1173.43Z" fill="#65CEFE"/>
<path d="M694.922 1173.43H552.154V1233.84H694.922V1173.43Z" fill="#6577FF"/>
<path d="M552.154 1173.43H409.386V1233.84H552.154V1173.43Z" fill="#064C91"/>
<path d="M838.809 1235.61H408.267V1171.65H838.809V1235.61ZM410.504 1232.06H836.572V1175.2H410.504V1232.06Z" fill="#064C91"/>
<path d="M826.755 992.18H683.987V1052.59H826.755V992.18Z" fill="#65CEFE"/>
<path d="M683.987 992.18H541.219V1052.59H683.987V992.18Z" fill="#6577FF"/>
<path d="M541.218 992.18H398.45V1052.59H541.218V992.18Z" fill="#064C91"/>
<path d="M827.873 1054.36H397.331V990.395H827.872L827.873 1054.36ZM399.569 1050.81H825.636V993.945H399.569V1050.81Z" fill="#064C91"/>
<path d="M540.21 488.033L534.609 517.099L519.661 496.059L469.475 444.941L514.847 464.857C514.847 464.857 536.756 478.611 537.656 480.209C538.556 481.809 540.21 488.033 540.21 488.033Z" fill="#E74A60"/>
<path d="M906.9 739.534V745.079L919.434 748.353L919.783 736.121L906.9 739.534Z" fill="#FFC0BB"/>
<path d="M935.342 738.386V744.999C935.342 744.999 947.383 748.611 947.34 748.639C947.298 748.667 948.322 737.789 948.322 737.789L935.342 738.386Z" fill="#FFC0BB"/>
<path d="M566.548 478.148L469.475 444.941L540.21 488.033L566.548 478.148Z" fill="#FF6E53"/>
<path d="M499.578 505.587L531.915 493.621L469.475 444.941L499.578 505.587Z" fill="#FF6E53"/>
<path d="M610.328 678.645L609.677 676.318C612.088 675.645 614.435 674.614 616.652 673.258L617.913 675.319C615.506 676.793 612.954 677.911 610.328 678.645Z" fill="#EEFBFF"/>
<path d="M629.441 664.269L627.484 662.852C630.223 659.069 632.702 654.562 634.854 649.458L637.081 650.396C634.857 655.67 632.287 660.337 629.441 664.269ZM642.005 635.394L639.648 634.862C639.794 634.213 639.931 633.561 640.056 632.906C640.485 630.679 640.796 628.389 640.982 626.097C641.152 623.985 641.219 621.823 641.18 619.671L643.596 619.628C643.635 621.858 643.566 624.1 643.39 626.291C643.197 628.669 642.875 631.049 642.429 633.362C642.303 634.024 642.16 634.708 642.005 635.394ZM639.263 604.481C638.15 599.661 636.542 594.748 634.484 589.877L636.71 588.937C638.822 593.935 640.472 598.982 641.617 603.938L639.263 604.481ZM569.475 575.151C567.786 575.014 563.782 573.775 561.739 571.401C560.211 569.627 559.218 567.311 558.871 564.703L561.265 564.384C561.555 566.557 562.33 568.387 563.569 569.825C565.043 571.536 568.324 572.634 569.669 572.743C569.849 572.758 569.923 572.747 569.923 572.747C570.041 572.718 570.182 572.682 570.322 572.643L570.958 574.974C570.797 575.018 570.637 575.059 570.476 575.099C570.203 575.166 569.875 575.183 569.475 575.151ZM627.457 576.162C624.847 571.84 621.882 567.574 618.647 563.484L620.542 561.985C623.84 566.156 626.863 570.505 629.526 574.913L627.457 576.162ZM583.514 564.853L581.428 563.634C582.195 562.321 582.828 560.932 583.308 559.504C583.985 557.495 584.421 555.331 584.603 553.074C584.701 551.848 584.727 550.574 584.68 549.286L587.095 549.197C587.146 550.58 587.118 551.95 587.012 553.269C586.814 555.722 586.339 558.079 585.599 560.277C585.065 561.858 584.364 563.398 583.514 564.853ZM565.723 551.074L563.986 549.395C567.513 545.746 572.684 543.245 578.177 542.534L578.543 542.489L578.825 544.889L578.488 544.931C573.528 545.573 568.876 547.812 565.723 551.074ZM607.173 553.494C603.441 550.838 600.399 548.965 598.827 548.355C597.024 547.656 595.355 547.078 593.725 546.588L594.42 544.274C596.111 544.782 597.839 545.381 599.7 546.103C602.098 547.033 606.288 549.9 608.573 551.526L607.173 553.494ZM581.341 534.558C579.438 529.855 576.844 525.453 573.631 521.476L575.511 519.957C578.874 524.119 581.588 528.727 583.581 533.651L581.341 534.558Z" fill="#EEFBFF"/>
<path d="M562.447 511.21C560.259 509.743 557.978 508.471 555.667 507.43L556.661 505.227C559.093 506.323 561.492 507.66 563.793 509.203L562.447 511.21Z" fill="#EEFBFF"/>
<path d="M861.523 481.808L859.224 496.229L854.366 477.002C854.366 477.002 861.175 473.699 861.475 474.9C861.775 476.101 861.523 481.808 861.523 481.808Z" fill="#E74A60"/>
<path d="M822.879 512.848L820.777 537.777L842.776 536.726L840.239 514.65L822.879 512.848Z" fill="#FFC0BB"/>
<path d="M841.445 525.149L840.239 514.65L822.88 512.848L822.151 521.481C825.603 524.919 831.81 528.485 841.445 525.149Z" fill="#F99893"/>
<path d="M854.933 496.049C853.611 498.784 854.313 501.86 856.501 502.919C858.69 503.976 861.536 502.616 862.859 499.881C864.182 497.146 863.48 494.07 861.292 493.012C859.103 491.953 856.257 493.313 854.933 496.049Z" fill="#F99893"/>
<path d="M853.087 512.432C853.862 511.265 854.535 510.018 855.094 508.702C856.668 505.176 857.59 501.383 858.126 498.058C858.242 497.345 858.398 496.64 858.568 495.938C859.252 493.101 859.435 490.06 858.959 486.888C857.43 476.688 849.223 468.555 839.006 467.143C825.241 465.24 813.116 475.432 812.26 488.93C810.843 488.022 809.208 487.728 807.715 488.285C804.853 489.351 803.614 493.117 804.947 496.695C806.28 500.274 809.683 502.31 812.545 501.243C812.943 501.095 813.305 500.89 813.637 500.645C814.08 512.205 822.928 521.667 834.227 522.197C839.752 522.456 844.893 520.529 848.884 517.155C849.148 516.961 849.428 516.731 849.723 516.462C851.022 515.28 852.13 513.911 853.087 512.432Z" fill="#FFC0BB"/>
<path d="M840.991 490.52C841.036 491.867 841.046 493.181 841.116 494.468C841.199 495.728 841.337 497.074 841.842 497.961L841.943 498.103C841.98 498.155 841.991 498.184 842.068 498.279C842.187 498.448 842.332 498.59 842.422 498.786C842.626 499.153 842.767 499.581 842.773 500.02C842.804 500.911 842.334 501.708 841.748 502.196C840.547 503.206 838.991 503.303 837.702 502.985C839.017 502.754 840.276 502.302 841.01 501.443C841.35 501.017 841.575 500.54 841.495 500.093C841.471 499.873 841.396 499.656 841.267 499.454C841.222 499.346 841.117 499.258 841.049 499.156L840.88 498.933L840.692 498.672C840.272 497.954 840.136 497.225 840.056 496.523C839.99 495.817 840 495.131 840.065 494.45C840.196 493.096 840.485 491.775 840.991 490.52Z" fill="#F99893"/>
<path d="M833.193 492.303C833.141 493.436 832.18 494.311 831.048 494.257C829.916 494.205 829.041 493.243 829.095 492.112C829.147 490.981 830.109 490.105 831.24 490.159C832.371 490.21 833.247 491.172 833.193 492.303Z" fill="#333333"/>
<path d="M850.741 494.276C850.688 495.408 849.727 496.283 848.596 496.229C847.464 496.176 846.589 495.216 846.643 494.084C846.695 492.953 847.656 492.078 848.787 492.131C849.919 492.185 850.793 493.145 850.741 494.276Z" fill="#333333"/>
<path d="M829.751 506.195C830.29 506.665 830.851 507.099 831.446 507.484C832.032 507.879 832.641 508.237 833.274 508.542C834.536 509.152 835.875 509.598 837.255 509.766C838.635 509.94 840.038 509.819 841.389 509.461C842.736 509.083 844.019 508.462 845.235 507.714C844.689 508.173 844.103 508.592 843.482 508.958C842.861 509.325 842.193 509.606 841.511 509.857C840.821 510.086 840.106 510.245 839.379 510.322C838.651 510.39 837.917 510.381 837.19 510.3C835.739 510.112 834.338 509.626 833.081 508.908C831.827 508.189 830.674 507.292 829.751 506.195Z" fill="#F99893"/>
<path d="M835.769 487.67C834.725 487.347 833.742 487.101 832.769 486.95C831.798 486.8 830.847 486.774 829.919 486.888C828.998 487.011 828.069 487.209 827.179 487.615C826.705 487.762 826.292 488.042 825.814 488.242C825.352 488.472 824.924 488.764 824.407 488.991C824.665 488.515 824.967 488.05 825.317 487.622C825.705 487.237 826.076 486.8 826.558 486.506C827.461 485.82 828.595 485.425 829.738 485.282C830.89 485.144 832.066 485.312 833.11 485.73C834.148 486.157 835.099 486.791 835.769 487.67Z" fill="#E74A60"/>
<path d="M844.808 488.68C845.637 487.947 846.692 487.511 847.795 487.294C848.9 487.086 850.087 487.149 851.188 487.509C852.282 487.87 853.318 488.477 854.07 489.326C854.487 489.709 854.766 490.208 855.07 490.663C855.331 491.15 855.537 491.665 855.698 492.183C855.235 491.86 854.871 491.49 854.463 491.174C854.033 490.886 853.682 490.53 853.247 490.294C852.451 489.723 851.579 489.349 850.699 489.048C849.811 488.758 848.872 488.599 847.891 488.556C846.907 488.515 845.895 488.566 844.808 488.68Z" fill="#E74A60"/>
<path d="M834.993 629.782C834.993 629.782 830.406 660.901 860.474 666.322C890.542 671.745 927.953 670.127 927.953 670.127L933.16 741.612L948.857 742.413C948.857 742.413 989.277 643.091 933.33 627.564L883.052 627.81L862.349 626.33C862.349 626.33 841.4 621.155 841.154 622.14C840.908 623.127 835.486 630.274 834.993 629.782Z" fill="#E74A60"/>
<path d="M807.36 629.949C807.36 629.949 802.773 661.069 832.841 666.49C862.909 671.913 900.32 670.295 900.32 670.295L905.527 741.78L921.224 742.581C921.224 742.581 961.644 643.259 905.698 627.731L855.42 627.977L834.717 626.498C834.717 626.498 813.768 621.323 813.521 622.308C813.275 623.295 807.854 630.442 807.36 629.949Z" fill="#FF6E53"/>
<path d="M845.233 527.836C845.233 527.836 865.936 530.465 871.193 534.737C876.451 539.01 901.755 601.774 901.755 601.774L880.724 626.42L836.032 626.748C836.032 626.748 802.514 644.822 781.483 627.735C760.452 610.647 771.296 551.168 783.454 538.351C795.613 525.535 817.301 525.864 817.301 525.864C817.301 525.864 837.018 539.667 845.233 527.836Z" fill="#063E70"/>
<path d="M805.142 559.059C805.883 562.48 806.336 565.952 806.658 569.435C806.837 571.176 806.914 572.925 807.014 574.673C807.067 576.424 807.108 578.175 807.084 579.929C807.015 583.433 806.823 586.949 806.221 590.419C805.633 593.874 804.777 597.342 803.17 600.465C804.251 597.133 804.787 593.709 805.175 590.276C805.556 586.84 805.688 583.375 805.732 579.911C805.804 576.446 805.719 572.975 805.609 569.501C805.486 566.027 805.328 562.55 805.142 559.059Z" fill="#031322"/>
<path d="M867.086 556.758C868.031 561.849 869.033 566.92 870.05 571.984C871.09 577.043 872.165 582.091 873.39 587.1C874.6 592.112 875.946 597.09 877.573 601.971C878.388 604.411 879.298 606.817 880.365 609.154C881.418 611.495 882.666 613.762 884.337 615.744C882.435 613.968 881.036 611.717 879.772 609.449C878.546 607.15 877.491 604.762 876.58 602.326C875.649 599.897 874.852 597.422 874.096 594.938C873.366 592.446 872.7 589.937 872.077 587.419C871.483 584.894 870.915 582.364 870.403 579.823C869.91 577.278 869.425 574.732 869.017 572.174C868.172 567.063 867.514 561.921 867.086 556.758Z" fill="#031322"/>
<path d="M877.489 612.212C877.357 611.172 869.46 610.01 866.556 609.86C864.357 609.746 849.776 609.258 844.817 609.035L845.181 610.31L845.106 615.942L844.292 619.675C848.643 619.95 859.28 620.366 861.495 620.805C864.454 621.39 869.585 623.62 869.585 623.62C869.585 623.62 871.721 623.135 869.008 621.965C866.83 621.026 865.302 619.569 864.655 618.846C864.282 618.43 864.686 617.689 864.957 617.759C872.341 619.694 873.101 620.014 873.101 620.014C873.101 620.014 881.781 619.965 873.15 618.015C867.977 616.846 866.124 616.166 865.663 615.585C865.467 615.338 865.817 614.498 866.132 614.478C870.615 614.201 878.659 615.79 876.456 614.748C874.659 613.899 869 612.967 866.799 612.617C866.664 612.595 866.446 611.775 867.046 611.725C871.313 611.368 877.611 613.178 877.489 612.212Z" fill="#FFC0BB"/>
<path d="M800.09 599.594C801.908 600.036 803.699 600.543 805.526 600.924C807.338 601.357 809.176 601.672 810.997 602.055C814.66 602.723 818.335 603.305 822.02 603.822C825.71 604.306 829.406 604.753 833.11 605.11C836.801 605.476 840.555 605.79 844.207 605.995L844.698 606.022L844.807 606.447C845.119 607.686 845.325 608.895 845.48 610.132C845.635 611.366 845.699 612.61 845.698 613.855C845.687 615.1 845.58 616.347 845.375 617.58C845.148 618.811 844.784 620.018 844.293 621.174L844.251 621.274L844.171 621.327L840.111 624.05C838.76 624.959 837.402 625.86 836.032 626.743C837.304 625.723 838.59 624.723 839.88 623.728L843.749 620.74L843.627 620.894C844.035 619.777 844.322 618.62 844.478 617.439C844.621 616.255 844.687 615.061 844.652 613.864C844.612 612.667 844.494 611.473 844.326 610.286C844.153 609.105 843.919 607.907 843.608 606.785L844.208 607.238C842.277 607.188 840.449 607.063 838.57 606.927C836.704 606.788 834.839 606.641 832.978 606.445C829.257 606.061 825.541 605.597 821.845 605.006C818.15 604.409 814.474 603.688 810.832 602.828C809.017 602.364 807.201 601.918 805.414 601.353C803.612 600.85 801.848 600.219 800.09 599.594Z" fill="#031322"/>
<path d="M970.979 570.398H890.141L867.22 626.345H839.318C838.229 626.345 837.317 627.411 837.346 628.317C837.382 629.406 838.229 630.289 839.318 630.289H944.116L970.979 570.398Z" fill="#FFCB83"/>
<path d="M930.894 602.316C930.417 604.7 928.339 606.295 926.253 605.877C924.166 605.459 922.862 603.188 923.339 600.803C923.815 598.419 925.894 596.824 927.98 597.242C930.067 597.66 931.371 599.931 930.894 602.316Z" fill="#EEFBFF"/>
<path d="M861.965 468.164C861.965 468.164 868.866 468.386 861.624 462.55C854.38 456.713 834.935 449.87 822.471 456.451C822.471 456.451 819.979 451.153 816.376 452.418C812.773 453.683 818.719 457.329 818.719 457.329C818.719 457.329 814.118 457.18 812.713 459.437C811.675 461.106 814.493 461.18 816.033 461.103C813.414 461.549 803.373 467.891 808.412 488.138C810.204 487.744 820.411 472.942 820.411 472.942C820.411 472.942 843.754 485.911 841.446 475.599C841.446 475.599 865.63 490.691 862.199 478.224C862.199 478.224 871.551 478.911 861.965 468.164Z" fill="#E74A60"/>
<path d="M808.391 488.268C808.391 488.268 810.325 487.589 812.404 489.238C814.483 490.888 814.253 496.686 814.253 496.686C814.253 496.686 824.176 503.084 823.13 476.007C822.017 447.202 814.853 478.317 814.853 478.317L808.391 488.268Z" fill="#E74A60"/>
<path d="M423.176 526.832L368.549 600.919L388.284 610.352L364.365 670.042L423.286 601.581L400.131 592.434L423.176 526.832Z" fill="#FFCB83"/>
<path d="M516.641 924.603L529.21 916.848L540.066 923.406L536.274 926.106L523.109 927.963C523.109 927.963 517.971 927.305 517.745 927.153C517.519 927 516.641 924.603 516.641 924.603Z" fill="#FFC0BB"/>
<path d="M516.641 924.61L513.455 926.659C511.979 927.59 512.633 929.872 514.378 929.88L538.494 929.994C539.345 929.999 540.038 929.313 540.042 928.462L540.066 923.414C523.981 928.452 518.442 926.87 516.641 924.61Z" fill="#E74A60"/>
<path d="M569.544 925.046L582.113 917.293L592.969 923.851L589.177 926.55L576.012 928.407C576.012 928.407 570.874 927.749 570.648 927.597C570.422 927.444 569.544 925.046 569.544 925.046Z" fill="#FFC0BB"/>
<path d="M569.544 925.051L566.358 927.101C564.882 928.031 565.536 930.313 567.281 930.321L591.397 930.435C592.247 930.439 592.941 929.753 592.944 928.903L592.969 923.855C576.884 928.892 571.344 927.311 569.544 925.051Z" fill="#E74A60"/>
<path d="M141 648.312L182.189 706.566L193.941 694.346L232.025 726.498L196.022 666.455L183.647 681.261L141 648.312Z" fill="#FFCB83"/>
<path d="M270.309 562.059L263.713 614.729L276.3 613.911L281.093 650.681L291.436 599.631L277.209 601.557L270.309 562.059Z" fill="#FFCB83"/>
<path d="M692.743 711.417C692.743 711.417 700.502 706.339 709.331 711.417C718.16 716.495 718.16 733.621 714.682 737.721C711.204 741.819 714.861 747.366 707.904 752.717C700.948 758.069 689.873 760.032 683.549 753.782C677.226 747.531 681.863 733.587 681.863 733.587L692.743 711.417Z" fill="#031322"/>
<path d="M595.055 768.455C594.909 768.815 594.422 768.871 594.202 768.553C592.496 766.081 587.076 758.334 586.348 758.625C585.482 758.971 590.157 766.011 589.637 766.703C589.118 767.395 584.733 760.413 583.868 760.933C583.002 761.451 587.214 767.684 586.926 768.03C586.637 768.376 581.963 762.837 581.272 762.837C580.579 762.837 584.849 769.357 584.618 769.877C584.387 770.395 579.944 766.876 579.598 767.222C579.253 767.568 578.963 767.741 586.695 778.532C586.695 778.532 590.06 781.928 590.29 783.312L594.369 784.59L598.524 780.494C598.524 780.494 598.928 763.415 598.35 763.01C597.799 762.625 597.301 762.923 595.055 768.455Z" fill="#FFC0BB"/>
<path d="M609.657 870.716L593.864 924.675L574.783 919.337L581.144 874.028L600.873 860.492L609.657 870.716Z" fill="#063E70"/>
<path d="M671.289 759.98C671.289 759.98 638.169 800.733 632.553 807.212L599 774.092C599 774.092 592.233 777.836 588.777 781.868C588.777 781.868 602.312 813.117 613.977 821.324L637.304 837.021L632.84 847.677L641.192 854.156L645.584 843.644L657.608 817.004L668.984 781.581L671.144 764.012L671.289 759.98Z" fill="#E74A60"/>
<path d="M671.145 764.012C671.145 764.012 657.177 786.763 654.296 795.547C651.417 804.332 653.721 805.051 652.424 815.707C651.128 826.363 641.336 854.875 641.336 854.875L657.607 865.819C657.607 865.819 666.392 837.739 666.392 836.588C666.392 835.436 674.6 784.027 674.6 784.027L681.367 764.876L671.145 764.012Z" fill="#EEFBFF"/>
<path d="M656.025 864.677C656.025 864.677 628.089 839.621 606.489 834.58C584.889 829.541 526.792 917.171 526.792 917.171L540.681 927.172C540.681 927.172 590.937 891.029 600.441 874.901C600.441 874.901 641.27 928.741 654.95 930.037C668.63 931.333 684.059 928.442 702.249 906.58C722.869 881.797 656.025 864.677 656.025 864.677Z" fill="#064C91"/>
<path d="M683.817 741.836L690.008 758.541C690.008 758.541 685.526 768.746 670.514 764.966C670.514 764.966 672.081 761.402 669.543 754.274C666.949 746.991 683.817 741.836 683.817 741.836Z" fill="#FFC0BB"/>
<path opacity="0.6" d="M683.817 741.836L686.721 749.639C685.377 755.469 680.466 759.586 670.978 761.156C670.918 759.44 670.568 757.153 669.543 754.274C666.949 746.991 683.817 741.836 683.817 741.836Z" fill="#FC8D84"/>
<path d="M597.993 858.547C597.718 859.914 597.592 861.317 597.597 862.717C597.604 864.118 597.718 865.52 597.932 866.905C598.151 868.291 598.461 869.661 598.836 871.012C599.209 872.365 599.672 873.685 600.235 874.983L600.561 874.702C599.815 874.205 599.1 873.606 598.419 872.994C597.738 872.377 597.076 871.734 596.444 871.063C595.818 870.386 595.216 869.685 594.633 868.969C594.045 868.254 593.502 867.505 592.952 866.756C593.429 867.552 593.936 868.331 594.479 869.086C595.011 869.85 595.606 870.566 596.207 871.277C596.822 871.977 597.456 872.662 598.139 873.3C598.827 873.936 599.529 874.542 600.32 875.082L600.945 875.51L600.646 874.8C600.113 873.536 599.686 872.207 599.287 870.885C598.9 869.555 598.576 868.205 598.343 866.839C598.1 865.477 597.92 864.099 597.865 862.713C597.792 861.326 597.836 859.934 597.993 858.547Z" fill="white"/>
<path d="M649.38 730.705C650.686 733.407 649.993 736.444 647.832 737.489C645.671 738.534 642.859 737.191 641.554 734.49C640.247 731.789 640.941 728.751 643.102 727.706C645.263 726.661 648.074 728.004 649.38 730.705Z" fill="#F99893"/>
<path d="M651.205 746.884C650.439 745.732 649.775 744.5 649.224 743.201C647.669 739.718 646.759 735.973 646.229 732.69C646.115 731.986 645.961 731.289 645.793 730.595C645.117 727.794 644.937 724.79 645.406 721.659C646.917 711.586 655.021 703.555 665.111 702.16C678.704 700.281 690.678 710.345 691.523 723.674C692.922 722.777 694.538 722.488 696.011 723.037C698.838 724.091 700.062 727.809 698.746 731.344C697.428 734.876 694.068 736.888 691.242 735.834C690.849 735.687 690.491 735.485 690.163 735.243C689.727 746.658 680.989 756.003 669.831 756.526C664.374 756.782 659.298 754.88 655.357 751.548C655.095 751.356 654.818 751.129 654.527 750.863C653.244 749.698 652.149 748.345 651.205 746.884Z" fill="#FFC0BB"/>
<path d="M663.15 725.238C663.201 726.553 663.243 727.852 663.209 729.136C663.171 729.774 663.158 730.415 663.043 731.027C662.941 731.634 662.798 732.246 662.509 732.711L662.395 732.872C662.354 732.93 662.332 732.972 662.264 733.055C662.156 733.21 662.021 733.341 661.94 733.521C661.849 733.691 661.756 733.859 661.711 734.054C661.643 734.238 661.619 734.436 661.61 734.634C661.572 735.436 661.994 736.168 662.529 736.639C663.07 737.127 663.735 737.403 664.4 737.54C665.071 737.667 665.748 737.664 666.397 737.549C665.741 737.472 665.105 737.36 664.518 737.132C663.932 736.916 663.395 736.586 663.002 736.157C662.623 735.725 662.359 735.199 662.428 734.682C662.446 734.553 662.455 734.425 662.509 734.303C662.536 734.177 662.608 734.062 662.672 733.945C662.724 733.823 662.836 733.727 662.913 733.615C662.999 733.502 663.139 733.316 663.244 733.167C663.626 732.507 663.765 731.814 663.853 731.138C663.928 730.459 663.923 729.79 663.882 729.125C663.787 727.797 663.554 726.494 663.15 725.238Z" fill="#F99893"/>
<path d="M670.85 727C670.902 728.118 671.85 728.982 672.969 728.929C674.086 728.877 674.95 727.928 674.898 726.811C674.846 725.692 673.898 724.829 672.779 724.881C671.662 724.934 670.797 725.882 670.85 727Z" fill="#333333"/>
<path d="M653.522 728.952C653.574 730.071 654.523 730.934 655.641 730.882C656.759 730.83 657.622 729.881 657.57 728.764C657.517 727.645 656.569 726.782 655.451 726.834C654.333 726.886 653.469 727.835 653.522 728.952Z" fill="#333333"/>
<path opacity="0.3" d="M671.771 742.378C671.771 742.378 668.836 741.447 666.177 743.333C666.177 743.333 663.163 741.597 660.907 743.444C660.907 743.444 662.146 747.791 666.974 747.318C671.802 746.845 671.771 742.378 671.771 742.378Z" fill="#F99893"/>
<path d="M674.248 740.719C673.717 741.182 673.162 741.612 672.574 741.99C671.996 742.38 671.395 742.734 670.77 743.036C669.523 743.638 668.2 744.079 666.838 744.243C665.476 744.416 664.09 744.295 662.755 743.942C661.425 743.568 660.159 742.957 658.958 742.218C659.498 742.671 660.075 743.085 660.688 743.446C661.301 743.808 661.962 744.086 662.635 744.333C663.316 744.56 664.022 744.717 664.741 744.793C665.459 744.859 666.185 744.85 666.902 744.77C668.335 744.584 669.718 744.105 670.959 743.396C672.199 742.688 673.338 741.802 674.248 740.719Z" fill="#F99893"/>
<path d="M668.306 722.422C669.338 722.102 670.308 721.859 671.269 721.71C672.228 721.563 673.168 721.537 674.083 721.648C674.993 721.77 675.91 721.965 676.79 722.366C677.258 722.512 677.666 722.789 678.138 722.985C678.593 723.212 679.017 723.501 679.527 723.725C679.272 723.255 678.975 722.795 678.628 722.374C678.246 721.992 677.879 721.561 677.402 721.27C676.511 720.593 675.391 720.204 674.262 720.062C673.125 719.926 671.964 720.092 670.932 720.505C669.908 720.928 668.968 721.553 668.306 722.422Z" fill="#031322"/>
<path d="M659.381 723.431C658.562 722.707 657.519 722.276 656.431 722.063C655.339 721.857 654.167 721.919 653.079 722.275C651.998 722.632 650.976 723.231 650.233 724.069C649.82 724.446 649.545 724.941 649.245 725.389C648.986 725.87 648.784 726.38 648.625 726.89C649.082 726.571 649.441 726.206 649.844 725.894C650.269 725.609 650.616 725.257 651.046 725.025C651.832 724.46 652.692 724.091 653.561 723.795C654.439 723.508 655.365 723.351 656.334 723.309C657.307 723.268 658.307 723.318 659.381 723.431Z" fill="#031322"/>
<path d="M642.563 773.412C657.247 809.842 639.619 851.277 603.189 865.962C566.76 880.646 525.324 863.018 510.64 826.588C495.955 790.158 513.584 748.723 550.014 734.039C586.443 719.355 627.878 736.983 642.563 773.412Z" fill="#FFCB83"/>
<path d="M635.925 776.094C649.131 808.857 633.277 846.124 600.514 859.329C567.75 872.535 530.484 856.682 517.278 823.918C504.071 791.154 519.925 753.888 552.689 740.683C585.453 727.476 622.718 743.33 635.925 776.094Z" fill="#E6A748"/>
<path d="M598.988 855.539C568.364 867.883 533.407 853.012 521.062 822.387C508.718 791.762 523.589 756.805 554.214 744.461C584.839 732.117 619.796 746.988 632.141 777.613C644.485 808.237 629.613 843.194 598.988 855.539ZM555.037 746.5C525.537 758.391 511.211 792.065 523.102 821.564C534.993 851.064 568.666 865.39 598.165 853.499C627.665 841.608 641.991 807.934 630.1 778.435C618.209 748.936 584.536 734.61 555.037 746.5Z" fill="#FFCB83"/>
<path opacity="0.5" d="M578.785 778.815C576.692 776.043 574.334 774.019 570.632 773.835C570.748 774.367 570.781 774.781 570.929 775.149C572.931 780.137 574.98 785.105 576.937 790.11C577.365 791.207 577.892 791.46 579.064 791.372C581.795 791.171 584.548 791.085 587.284 791.184C596.892 791.537 602.629 797.335 605.008 806.017C607.873 816.475 604.721 824.435 595.73 830.6C594.09 831.727 593.884 832.706 594.719 834.323C595.327 835.502 595.737 836.784 596.285 838.142C594.123 839.012 592.087 839.834 589.855 840.734C589.067 838.781 588.289 836.85 587.526 834.956C572.592 838.347 564.311 829.968 560.697 822.694C564.331 820.745 567.969 818.792 571.701 816.788C574.482 820.539 577.842 823.092 583.047 823.918C581.929 821.147 580.967 818.759 580.005 816.37C578.689 813.108 577.317 809.865 576.083 806.572C575.628 805.357 575.037 804.922 573.708 805.018C569.47 805.324 565.268 805.083 561.277 803.419C553.194 800.048 549.382 793.401 548.551 785.215C547.774 777.571 551.431 771.672 557.872 767.529C558.301 767.252 558.736 766.983 559.159 766.696C559.315 766.589 559.445 766.444 559.715 766.202C559.097 764.672 558.462 763.094 557.769 761.377C559.957 760.496 561.996 759.674 564.298 758.746C564.761 759.894 565.311 761.035 565.679 762.233C566.068 763.5 566.75 763.68 567.975 763.406C573.442 762.183 578.657 762.732 583.387 765.975C585.887 767.689 587.877 769.881 589.514 772.732C585.913 774.775 582.436 776.747 578.785 778.815ZM582.826 804.356C585.193 810.226 587.491 815.931 589.794 821.642C593.619 819.653 595.398 814.836 594.021 810.349C592.674 805.959 588.421 803.595 582.826 804.356ZM563.735 776.469C560.667 779.459 559.699 783.591 561.161 786.668C562.774 790.064 566.486 792.204 569.893 791.744C567.874 786.737 565.851 781.718 563.735 776.469Z" fill="#FFF9FF"/>
<path d="M601.795 812.989C601.951 813.386 601.605 813.801 601.187 813.713C597.948 813.029 587.744 810.94 587.382 811.725C586.953 812.658 596.025 814.746 596.134 815.693C596.244 816.641 587.445 814.38 587.146 815.451C586.848 816.521 594.938 818.314 594.97 818.809C595.001 819.305 587.066 818.416 586.512 818.941C585.958 819.465 594.314 821.445 594.523 822.036C594.732 822.626 588.511 823.177 588.497 823.716C588.483 824.256 588.383 824.613 602.743 827.384L608.443 828.234L613.471 826.415L613.689 819.99C613.689 819.99 601.07 806.023 600.303 806.137C599.572 806.246 599.399 806.861 601.795 812.989Z" fill="#FFC0BB"/>
<path d="M689.577 755.734C689.577 755.734 718.088 790.078 714.2 850.558C710.312 911.037 709.665 911.47 709.665 911.47C709.665 911.47 692.169 909.597 679.209 899.23C666.249 888.862 650.409 881.806 650.409 881.806L660.92 847.678C660.92 847.678 647.241 848.11 637.304 843.933C627.368 839.758 606.632 828.669 606.632 828.669C606.632 828.669 608.361 818.446 610.521 815.278C610.521 815.278 636.873 823.341 650.12 823.485C650.12 823.485 665.528 775.966 689.577 755.734Z" fill="#FF6E53"/>
<path d="M687.524 766.75C683.189 770.501 679.181 774.632 675.42 778.968C671.655 783.304 668.178 787.889 664.956 792.645L663.763 794.439C663.363 795.036 662.965 795.633 662.6 796.253L660.361 799.936C659.979 800.544 659.653 801.186 659.306 801.815L658.277 803.709L657.25 805.603C656.915 806.238 656.625 806.896 656.311 807.542L654.464 811.434L652.842 815.425L652.049 817.426L651.375 819.47C650.921 820.831 650.481 822.195 650.047 823.558C650.58 822.227 651.105 820.894 651.617 819.559L652.391 817.559L653.282 815.608L655.042 811.701L656.987 807.884C657.317 807.251 657.621 806.605 657.97 805.982L659.023 804.118L660.075 802.254C660.43 801.635 660.763 801.003 661.153 800.404L663.401 796.761C663.766 796.148 664.166 795.557 664.566 794.966L665.76 793.188C668.946 788.451 672.367 783.87 675.996 779.455L678.76 776.178C679.708 775.109 680.637 774.023 681.601 772.966C683.506 770.83 685.487 768.765 687.524 766.75Z" fill="#B32E69"/>
<path d="M699.836 790.727C697.489 796.01 694.982 801.213 692.394 806.369C691.088 808.942 689.761 811.502 688.379 814.033C687.008 816.57 685.596 819.083 684.115 821.554C682.656 824.038 681.128 826.481 679.522 828.87C678.737 830.077 677.899 831.245 677.072 832.423C676.215 833.578 675.369 834.742 674.471 835.865C672.682 838.114 670.798 840.293 668.727 842.288C666.663 844.286 664.382 846.079 661.82 847.426C664.483 846.277 666.858 844.536 669.049 842.639C671.22 840.707 673.202 838.572 675.06 836.342C676.932 834.123 678.641 831.773 680.284 829.384C681.925 826.993 683.469 824.539 684.95 822.049C687.904 817.064 690.589 811.927 693.072 806.701C695.552 801.474 697.836 796.152 699.836 790.727Z" fill="#B32E69"/>
<path d="M644.539 704.043C647.875 696.786 654.364 692.69 659.969 690.413C666.86 687.615 674.595 687.404 681.558 690.018C701.197 697.393 697.281 719.052 696.359 723.106C695.421 722.888 694.129 722.916 692.558 723.768C691.898 724.126 691.364 724.504 690.93 724.884C687.109 723.72 685.953 717.376 683.975 714.321C681.292 710.174 670.884 714.123 666.397 711.18C661.91 708.237 661.146 705.178 661.146 705.178C643.846 707.92 645.145 727.392 645.145 727.392C644.396 727.224 642.667 724.421 642.667 724.421C642.667 724.421 638.404 717.386 644.539 704.043Z" fill="#031322"/>
<path d="M1286.62 978.848L1249.67 1002.07L1246.91 1220.35L1254.27 1225.41L1261.5 1223.8L1282.46 1080.29L1299.57 987.648L1286.62 978.848Z" fill="#FFC0BB"/>
<path d="M1361.66 1192.82C1345.11 1148.41 1316.36 1118.17 1316.36 1118.17C1316.36 1118.17 1321.76 1103.59 1327.31 1055.5C1332.86 1007.41 1309.43 977.195 1309.43 977.195L1267.99 989.59C1267.99 989.59 1289.09 1115.61 1292.48 1123.63C1295.13 1129.9 1328.85 1175.03 1343.35 1194.31L1343.37 1194.65L1349.91 1203L1356.11 1210.92L1363.43 1207.6L1364.72 1198.46L1361.66 1192.82Z" fill="#FFC0BB"/>
<path d="M1249.64 998.993C1249.64 998.993 1239.94 1073.09 1241.02 1128.44C1241.02 1128.44 1278.51 1134.36 1306.04 1132.28L1307.23 1100.61L1313.15 1130.51C1313.15 1130.51 1326.76 1129.92 1332.98 1124.88C1332.98 1124.88 1329.19 1093.25 1330.31 1068.94C1331.44 1044.63 1330.43 1014.04 1322.42 993.749C1314.42 973.459 1269.93 995.683 1269.93 995.683L1249.64 998.993Z" fill="#063E70"/>
<path d="M1299.71 812.379C1299.71 812.379 1308.23 818.901 1310.79 828.124C1312.98 835.999 1322.72 834.619 1328.81 845.142C1335.57 856.83 1345.19 874.309 1323.13 886.097C1309.42 893.419 1287.6 899.053 1282.66 894.112C1277.71 889.171 1265.91 891.148 1268.56 839.213C1268.56 839.213 1300.82 820.986 1301.15 820.876C1301.47 820.766 1299.71 812.379 1299.71 812.379Z" fill="#031322"/>
<path d="M1256.77 961.079L1260.71 944.104L1250.89 917.734C1250.89 917.734 1245.51 938.663 1237.45 957.321L1207.85 960.918L1201.6 962.1C1201.6 962.1 1242.11 985.201 1253.11 968.197C1254.27 968.48 1255 968.658 1255 968.658L1256.05 964.141C1256.64 963.144 1257.13 962.121 1257.45 961.081L1256.77 961.079Z" fill="#E74A60"/>
<path d="M1294.43 869.09L1293.64 881.563L1276.64 885.099H1273.63L1274.26 870.154L1292.29 863.785L1294.43 869.09Z" fill="#FFC0BB"/>
<path d="M1267.76 889.063C1266.99 897.444 1270.46 899.005 1270.46 899.005L1296.14 879.949C1280.2 881.511 1269.89 883.223 1269.89 883.223C1269.89 883.223 1268.57 889.292 1267.76 889.063Z" fill="#FFC0BB"/>
<path d="M1310.36 841.96C1310.36 841.96 1315.6 820.451 1303.12 812.395C1290.63 804.339 1277.39 805.236 1268.38 810.062C1259.37 814.889 1253.97 831.717 1258.01 841.332L1287.93 832.151L1310.36 841.96Z" fill="#031322"/>
<path d="M1294.8 865.836C1294.8 865.836 1294.44 869.457 1294.12 873.968C1287.66 881.05 1275.54 878.62 1273.94 877.934C1274.03 875.664 1273.94 871.074 1273.94 871.074L1294.8 865.836Z" fill="#F99893"/>
<path d="M1261.9 845.133C1262.97 848.027 1261.95 851.064 1259.64 851.916C1257.32 852.768 1254.58 851.114 1253.51 848.219C1252.45 845.324 1253.46 842.287 1255.78 841.435C1258.09 840.583 1260.84 842.239 1261.9 845.133Z" fill="#F99893"/>
<path d="M1262.14 861.863C1261.48 860.607 1260.92 859.28 1260.49 857.897C1259.25 854.179 1258.69 850.257 1258.48 846.846C1258.43 846.113 1258.34 845.386 1258.24 844.66C1257.83 841.727 1257.95 838.636 1258.74 835.48C1261.3 825.328 1270.39 817.927 1280.85 817.512C1294.94 816.953 1306.18 828.448 1305.71 842.166C1307.23 841.389 1308.91 841.255 1310.36 841.964C1313.15 843.325 1314.03 847.253 1312.33 850.734C1310.63 854.217 1306.99 855.936 1304.2 854.575C1303.82 854.386 1303.47 854.143 1303.16 853.864C1301.57 865.496 1291.69 874.178 1280.23 873.593C1274.62 873.308 1269.62 870.853 1265.92 867.051C1265.67 866.828 1265.41 866.568 1265.14 866.267C1263.95 864.945 1262.96 863.451 1262.14 861.863Z" fill="#FFC0BB"/>
<path d="M1283.6 845.436C1283.54 846.672 1284.49 847.724 1285.72 847.787C1286.96 847.85 1288.01 846.9 1288.08 845.664C1288.14 844.428 1287.19 843.374 1285.95 843.312C1284.72 843.249 1283.66 844.199 1283.6 845.436Z" fill="#333333"/>
<path d="M1263.7 845.436C1263.64 846.672 1264.59 847.724 1265.82 847.787C1267.06 847.85 1268.11 846.9 1268.18 845.664C1268.24 844.428 1267.29 843.374 1266.05 843.312C1264.82 843.249 1263.76 844.199 1263.7 845.436Z" fill="#333333"/>
<path d="M1281.71 841.702C1282.73 841.162 1283.79 840.761 1284.87 840.493C1285.95 840.236 1287.05 840.14 1288.14 840.243C1288.68 840.288 1289.21 840.397 1289.74 840.547C1290.01 840.614 1290.26 840.713 1290.52 840.802C1290.65 840.846 1290.77 840.908 1290.9 840.959C1291.03 841.01 1291.16 841.061 1291.28 841.125C1292.28 841.601 1293.23 842.228 1294.15 842.925C1293.46 841.993 1292.59 841.189 1291.58 840.574C1291.07 840.266 1290.53 840.005 1289.96 839.82C1289.4 839.63 1288.81 839.498 1288.21 839.445C1287.01 839.333 1285.8 839.494 1284.69 839.896C1284.13 840.09 1283.6 840.348 1283.1 840.644C1282.6 840.948 1282.12 841.289 1281.71 841.702Z" fill="#333333"/>
<path d="M1272.68 841.702C1272.27 841.29 1271.8 840.948 1271.3 840.644C1270.79 840.348 1270.26 840.09 1269.71 839.896C1268.59 839.494 1267.38 839.333 1266.18 839.445C1265.59 839.497 1265 839.629 1264.43 839.82C1263.86 840.005 1263.32 840.266 1262.82 840.574C1261.81 841.189 1260.93 841.994 1260.25 842.925C1261.17 842.228 1262.11 841.601 1263.11 841.125C1263.23 841.061 1263.36 841.01 1263.49 840.959C1263.62 840.908 1263.74 840.846 1263.87 840.802C1264.13 840.713 1264.39 840.614 1264.65 840.547C1265.18 840.398 1265.72 840.288 1266.26 840.243C1267.34 840.14 1268.45 840.236 1269.53 840.493C1270.6 840.761 1271.66 841.162 1272.68 841.702Z" fill="#333333"/>
<path d="M1323.89 917.03C1323.35 916.467 1322.84 915.832 1322.37 915.185C1321.9 914.532 1321.46 913.859 1321.07 913.153C1320.67 912.455 1320.32 911.729 1320.01 910.982C1319.69 910.24 1319.45 909.465 1319.21 908.684C1319.31 909.492 1319.47 910.305 1319.72 911.087C1319.84 911.484 1319.99 911.866 1320.13 912.253C1320.3 912.629 1320.45 913.013 1320.64 913.38C1321.02 914.117 1321.43 914.835 1321.91 915.508C1322.29 916.054 1322.7 916.573 1323.16 917.067C1322.74 917.149 1322.31 917.203 1321.89 917.224C1321.3 917.254 1320.7 917.231 1320.12 917.143C1319.82 917.108 1319.53 917.037 1319.24 916.978C1318.96 916.892 1318.67 916.824 1318.39 916.711C1317.82 916.52 1317.29 916.231 1316.76 915.931C1317.23 916.315 1317.73 916.68 1318.29 916.938C1318.84 917.217 1319.44 917.415 1320.04 917.544C1320.65 917.674 1321.28 917.745 1321.9 917.731C1322.53 917.722 1323.14 917.662 1323.77 917.496L1324.22 917.378L1323.89 917.03Z" fill="white"/>
<path d="M1275.31 844.41C1274.68 845.428 1274.14 846.495 1273.65 847.585C1273.17 848.676 1272.74 849.795 1272.4 850.958C1272.25 851.543 1272.11 852.138 1272.07 852.777C1272.06 852.939 1272.06 853.104 1272.08 853.279C1272.1 853.365 1272.12 853.459 1272.14 853.548C1272.18 853.646 1272.2 853.74 1272.27 853.838C1272.3 853.888 1272.34 853.937 1272.38 853.982L1272.47 854.064C1272.54 854.115 1272.6 854.172 1272.66 854.22C1272.79 854.309 1272.92 854.404 1273.05 854.48C1273.59 854.807 1274.15 855.038 1274.72 855.239C1275.29 855.429 1275.87 855.593 1276.46 855.695C1275.38 855.184 1274.3 854.675 1273.37 854.007C1273.26 853.926 1273.16 853.831 1273.05 853.743L1272.9 853.604L1272.83 853.536C1272.83 853.521 1272.82 853.509 1272.81 853.498C1272.74 853.382 1272.73 853.083 1272.76 852.825C1272.82 852.28 1272.95 851.712 1273.11 851.154C1273.42 850.03 1273.81 848.914 1274.18 847.794C1274.57 846.674 1274.96 845.553 1275.31 844.41Z" fill="#F99893"/>
<path d="M1319.83 952.605V952.601C1322.88 935.608 1324.2 917.368 1324.2 917.368C1324.37 913.164 1319.38 907.36 1319.17 904.067C1314.91 900.602 1313.9 897.771 1313.9 897.771L1306.48 882.368C1306.48 882.368 1301.55 879.955 1301.55 879.949C1297.69 879.588 1295.8 879.935 1295.8 879.935L1283.08 889.51C1277.76 893.514 1270.13 889.878 1269.9 883.223C1269.89 883.22 1269.89 883.221 1269.88 883.218C1258.72 892.17 1251.21 896.207 1249.66 910.578C1248.58 920.61 1254.04 929.108 1254.64 938.66L1249.64 998.984C1249.64 998.984 1291.75 999.459 1322.42 993.741C1322.42 993.742 1319.55 976.704 1319.83 952.605Z" fill="#FF6E53"/>
<path d="M1246.16 996.336L1202.21 998.986C1199.44 999.153 1196.36 997.373 1195.34 995.01L1172.23 941.522C1171.2 939.159 1172.63 937.109 1175.4 936.941L1219.34 934.292C1222.12 934.124 1225.2 935.904 1226.22 938.267L1249.33 991.756C1250.35 994.119 1248.93 996.169 1246.16 996.336Z" fill="#064C91"/>
<path d="M1206.33 937.763L1191.37 938.665C1190.18 938.737 1188.84 937.967 1188.4 936.946L1187.99 935.988C1187.55 934.967 1188.16 934.08 1189.36 934.008L1204.32 933.106C1205.52 933.034 1206.85 933.803 1207.29 934.824L1207.7 935.783C1208.15 936.804 1207.53 937.69 1206.33 937.763Z" fill="#EEFBFF"/>
<path d="M1189.98 982.653L1189.79 982.735C1188.68 983.223 1187.39 982.797 1186.78 981.749L1179.9 969.791C1179.55 969.216 1179.57 968.493 1179.94 967.933C1181.11 966.193 1183.62 962.615 1184.48 962.746C1185.61 962.919 1182.16 968.865 1182.63 968.984C1183.1 969.104 1187.98 965.144 1188.4 965.79C1188.77 966.369 1184.47 970.976 1184.66 971.334C1184.86 971.693 1189.83 968.809 1190.36 969.326C1190.85 969.793 1186.17 973.516 1186.23 973.777L1189.98 982.653Z" fill="#FFC0BB"/>
<path d="M1185.9 973.923C1185.9 973.923 1190.87 972.411 1191.31 972.973C1191.74 973.533 1185.87 976.7 1185.9 976.554C1185.92 976.408 1185.9 973.923 1185.9 973.923Z" fill="#FFC0BB"/>
<path d="M1308.73 838.994L1308.17 838.928L1307.8 834.261L1305.71 829.946C1305.71 829.946 1297.54 818.341 1297.25 818.053C1296.96 817.766 1290.73 814.026 1290.34 813.834C1289.96 813.642 1281.23 815.08 1281.23 815.08C1281.23 815.08 1265.88 811.776 1268.48 820.356C1271.07 828.934 1282.29 833.398 1282.86 833.014C1281.04 831.097 1280.85 825.63 1280.85 825.63C1289.48 835.603 1305.71 842.161 1305.71 842.161C1305.71 842.161 1307.41 840.863 1310.36 841.959L1308.73 838.994Z" fill="#031322"/>
<path d="M1270.34 859.214C1270.93 861.862 1273.5 863.829 1276.54 863.777C1279.58 863.725 1282.08 861.671 1282.58 859.004L1270.34 859.214Z" fill="white"/>
<path d="M1327.47 921.573C1327.47 921.573 1321.23 887.27 1302.07 880.124C1296.87 878.187 1291.34 881.998 1291.31 887.539C1291.27 895.428 1315.54 953.876 1313.05 956.875C1309.66 960.959 1247.37 975.672 1245.29 976.163L1237.87 975.453C1231.77 975.025 1225.28 974.197 1224.93 974.65C1224.43 975.287 1224.75 975.905 1231.25 978.971C1231.67 979.169 1231.71 979.759 1231.31 980.004C1228.22 981.894 1218.54 987.907 1218.84 988.801C1219.2 989.865 1227.98 984.703 1228.78 985.374C1229.58 986.044 1220.88 990.862 1221.45 991.937C1222.01 993.013 1229.79 988.353 1230.19 988.724C1230.59 989.093 1223.61 994.353 1223.56 995.186C1223.52 996.02 1231.65 991.309 1232.26 991.621C1232.87 991.933 1228.33 997.047 1228.73 997.487C1229.12 997.926 1227.6 998.584 1241.1 989.99C1241.1 989.99 1244.43 987.747 1245.65 986.809C1245.65 986.809 1323 975.891 1327.81 969.771C1336.73 958.418 1327.47 921.573 1327.47 921.573Z" fill="#FFC0BB"/>
<path d="M1327.47 921.573C1327.47 921.573 1321.23 887.27 1302.06 880.124C1296.87 878.187 1291.34 881.998 1291.31 887.539C1291.27 895.428 1315.54 953.876 1313.05 956.875C1309.66 960.959 1247.37 975.672 1245.29 976.163L1245.15 976.149C1245.87 979.55 1246.79 983.171 1247.92 986.482C1260.69 984.629 1323.49 975.266 1327.81 969.77C1336.73 958.418 1327.47 921.573 1327.47 921.573Z" fill="#E74A60"/>
<path d="M1208 392C1204.5 376.849 1190.88 365.544 1174.59 365.544C1171.6 365.544 1168.7 365.927 1165.93 366.643C1157.89 349.536 1140.45 337.683 1120.22 337.683C1114.99 337.683 1109.94 338.476 1105.2 339.945C1094.31 321.999 1074.52 310 1051.91 310C1025.02 310 1002.11 326.986 993.434 350.763C987.29 347.354 980.218 345.405 972.684 345.405C949.11 345.405 930 364.421 930 387.878C930 389.268 930.072 390.643 930.204 391.999L1208 392Z" fill="white"/>
<path d="M621 426C623.152 416.576 631.533 409.545 641.552 409.545C643.392 409.545 645.176 409.784 646.876 410.228C651.821 399.589 662.552 392.217 674.997 392.217C678.213 392.217 681.316 392.709 684.235 393.624C690.934 382.462 703.106 375 717.01 375C733.552 375 747.643 385.564 752.98 400.352C756.759 398.233 761.111 397.02 765.744 397.02C780.245 397.02 792 408.846 792 423.437C792 424.302 791.956 425.155 791.876 426H621Z" fill="white"/>
<path d="M1198 518C1200.29 508.021 1209.21 500.578 1219.87 500.578C1221.83 500.578 1223.73 500.83 1225.54 501.3C1230.8 490.036 1242.23 482.23 1255.47 482.23C1258.9 482.23 1262.2 482.752 1265.3 483.721C1272.43 471.903 1285.39 464 1300.19 464C1317.79 464 1332.79 475.186 1338.47 490.843C1342.49 488.6 1347.12 487.315 1352.06 487.315C1367.49 487.315 1380 499.838 1380 515.286C1380 516.203 1379.95 517.107 1379.87 518H1198Z" fill="white"/>
<path d="M769.213 232.347C770.948 224.797 777.705 219.163 785.782 219.163C787.265 219.163 788.703 219.354 790.073 219.71C794.06 211.186 802.711 205.279 812.743 205.279C815.337 205.279 817.838 205.674 820.192 206.407C825.592 197.464 835.403 191.484 846.613 191.484C859.949 191.484 871.307 199.949 875.611 211.798C878.658 210.1 882.165 209.129 885.901 209.129C897.591 209.129 907.067 218.605 907.067 230.294C907.067 230.988 907.032 231.672 906.966 232.348H769.213V232.347Z" fill="white"/>
<path d="M1233.05 1225.46L1248.33 1216.03L1261.53 1224L1256.92 1227.28L1240.92 1229.54C1240.92 1229.54 1234.67 1228.74 1234.4 1228.56C1234.12 1228.37 1233.05 1225.46 1233.05 1225.46Z" fill="#FFC0BB"/>
<path d="M1233.05 1225.45L1229.18 1227.94C1227.39 1229.07 1228.18 1231.85 1230.3 1231.86L1259.62 1231.99C1260.65 1232 1261.49 1231.16 1261.5 1230.13L1261.53 1224C1241.98 1230.12 1235.24 1228.2 1233.05 1225.45Z" fill="#063E70"/>
<path d="M1352.09 1224.03L1351.68 1205.26L1364.72 1198.46L1365.33 1204.09L1359.49 1219.16C1359.49 1219.16 1355.75 1224.22 1355.45 1224.37C1355.16 1224.52 1352.09 1224.03 1352.09 1224.03Z" fill="#FFC0BB"/>
<path d="M1352.09 1224.03L1352.37 1228.62C1352.49 1230.74 1355.3 1231.4 1356.34 1229.55L1370.77 1204.04C1371.28 1203.14 1370.96 1201.99 1370.06 1201.49L1364.72 1198.46C1360.52 1218.52 1355.56 1223.46 1352.09 1224.03Z" fill="#063E70"/>
<path d="M955.296 765.873L929.109 755.754C928.455 755.5 928.13 754.766 928.383 754.112L928.578 753.605C928.831 752.952 929.565 752.626 930.219 752.878L956.406 762.998C957.059 763.25 957.385 763.986 957.133 764.639L956.937 765.146C956.683 765.8 955.949 766.125 955.296 765.873Z" fill="white"/>
<path d="M933.716 744.193L929.682 751.82C929.184 752.76 929.39 753.867 930.114 754.148L955.276 763.872C955.93 764.124 956.733 763.966 957.373 763.331C958.028 762.681 958.557 761.523 958.045 759.496C957.023 755.441 949.922 751.804 947.352 747.687L935.632 743.157C934.977 742.904 934.166 743.343 933.716 744.193Z" fill="#063E70"/>
<path d="M943.779 751.642C943.64 751.459 943.692 751.128 943.889 750.935C944.806 750.031 947.379 747.962 950.31 749.724C950.48 749.826 950.509 750.114 950.382 750.351L950.378 750.359C950.256 750.588 950.031 750.683 949.867 750.584C947.237 749.016 945.016 750.859 944.261 751.621C944.101 751.784 943.895 751.793 943.779 751.642Z" fill="white"/>
<path d="M945.995 753.673C945.857 753.491 945.909 753.159 946.104 752.966C947.021 752.062 949.595 749.993 952.527 751.755C952.696 751.856 952.726 752.146 952.598 752.382L952.594 752.39C952.472 752.619 952.247 752.714 952.083 752.616C949.452 751.047 947.232 752.889 946.477 753.652C946.316 753.815 946.11 753.824 945.995 753.673Z" fill="white"/>
<path d="M948.055 755.579C947.916 755.397 947.968 755.065 948.164 754.872C949.08 753.969 951.654 751.9 954.586 753.661C954.755 753.762 954.785 754.051 954.658 754.288L954.654 754.296C954.531 754.525 954.307 754.619 954.143 754.521C951.512 752.953 949.291 754.796 948.537 755.558C948.375 755.721 948.17 755.73 948.055 755.579Z" fill="white"/>
<path opacity="0.3" d="M936.83 756.735C937.342 749.513 934.2 747.478 932.277 746.906L929.682 751.811C929.184 752.751 929.39 753.859 930.114 754.139L936.83 756.735Z" fill="#E87B50"/>
<path d="M928.625 765.938L901.796 757.669C901.126 757.462 900.751 756.753 900.958 756.083L901.117 755.563C901.324 754.893 902.034 754.518 902.704 754.725L929.533 762.994C930.203 763.2 930.578 763.911 930.371 764.581L930.211 765.1C930.004 765.77 929.295 766.145 928.625 765.938Z" fill="white"/>
<path d="M905.588 745.819L902.094 753.709C901.663 754.681 901.946 755.773 902.688 756L928.467 763.946C929.136 764.152 929.927 763.938 930.52 763.261C931.129 762.566 931.576 761.376 930.925 759.388C929.623 755.414 922.285 752.281 919.435 748.353L907.427 744.652C906.754 744.446 905.976 744.94 905.588 745.819Z" fill="#063E70"/>
<path d="M916.145 752.541C915.994 752.369 916.023 752.034 916.203 751.829C917.055 750.863 919.479 748.62 922.526 750.173C922.702 750.263 922.751 750.549 922.641 750.794L922.637 750.802C922.53 751.039 922.313 751.149 922.142 751.063C919.409 749.681 917.323 751.674 916.623 752.488C916.475 752.661 916.27 752.684 916.145 752.541Z" fill="white"/>
<path d="M918.497 754.436C918.346 754.264 918.375 753.929 918.556 753.724C919.408 752.758 921.832 750.515 924.878 752.068C925.054 752.157 925.103 752.443 924.993 752.688L924.989 752.696C924.883 752.934 924.666 753.043 924.495 752.957C921.762 751.576 919.674 753.569 918.975 754.382C918.827 754.555 918.623 754.58 918.497 754.436Z" fill="white"/>
<path d="M920.685 756.178C920.534 756.006 920.562 755.67 920.744 755.466C921.595 754.5 924.02 752.256 927.065 753.81C927.242 753.899 927.292 754.186 927.181 754.43L927.178 754.438C927.071 754.675 926.853 754.785 926.683 754.699C923.949 753.317 921.862 755.31 921.164 756.125C921.014 756.297 920.81 756.32 920.685 756.178Z" fill="white"/>
<path opacity="0.3" d="M909.568 758.119C909.576 750.878 906.3 749.069 904.34 748.633L902.094 753.707C901.663 754.679 901.946 755.771 902.688 755.999L909.568 758.119Z" fill="#E87B50"/>
</svg>
